/* XPM */
static char *e1_60x601647210254[] = {
/* columns rows colors chars-per-pixel */
"60 60 255 2 ",
"   c #352806",
".  c #1E1300",
"X  c #540302",
"o  c #770108",
"O  c #731216",
"+  c #4D3A09",
"@  c #623C00",
"#  c #4B3A2D",
"$  c #762E2B",
"%  c #584703",
"&  c #564618",
"*  c #544D10",
"=  c #684902",
"-  c #6B5404",
";  c #745703",
":  c #6E5112",
">  c #786601",
",  c #7B6E1A",
"<  c #544D30",
"1  c #6E5032",
"2  c #776930",
"3  c #57524E",
"4  c #6A5B4D",
"5  c #666455",
"6  c #756B51",
"7  c #776968",
"8  c #77766B",
"9  c #797A77",
"0  c #6C6E6B",
"q  c #990815",
"w  c #8F0D11",
"e  c #B10B12",
"r  c #B11628",
"t  c #8B3031",
"y  c #AC302F",
"u  c #981F19",
"i  c #D9060A",
"p  c #C70514",
"a  c #D60816",
"s  c #DC1416",
"d  c #CA0F0F",
"f  c #F9050B",
"g  c #FA0617",
"h  c #FB1912",
"j  c #EA0F0E",
"k  c #F12F13",
"l  c #D21126",
"z  c #F61426",
"x  c #D02F33",
"c  c #F02C27",
"v  c #D02B1B",
"b  c #8A6802",
"n  c #976C02",
"m  c #8D7502",
"M  c #987702",
"N  c #957916",
"B  c #8D6E15",
"V  c #A6790A",
"C  c #89732F",
"Z  c #8C4C1C",
"A  c #F3461D",
"S  c #D34930",
"D  c #F9542F",
"F  c #FF6A3B",
"G  c #A73A44",
"H  c #8B5051",
"J  c #B34C4D",
"K  c #8B7652",
"L  c #AC685C",
"P  c #847A76",
"I  c #8C746D",
"U  c #B2726E",
"Y  c #D0504C",
"T  c #D26850",
"R  c #F5704D",
"E  c #D46F63",
"W  c #E06769",
"Q  c #7A857A",
"!  c #9A850D",
"~  c #AA8804",
"^  c #B58902",
"/  c #BA9702",
"(  c #AC9417",
")  c #B79C19",
"_  c #AB8F08",
"`  c #B8A514",
"'  c #BFAC0A",
"]  c #96862D",
"[  c #B69628",
"{  c #A9942E",
"}  c #B8A52E",
"|  c #C59C13",
" . c #C8A40A",
".. c #CBA714",
"X. c #D5B816",
"o. c #D3B00B",
"O. c #E5BA13",
"+. c #CAAF2D",
"@. c #E0A92B",
"#. c #DCC30E",
"$. c #E8C608",
"%. c #F8D906",
"&. c #E9C917",
"*. c #F9DA17",
"=. c #F2CD11",
"-. c #FDE401",
";. c #FEE707",
":. c #FFE816",
">. c #FFF10F",
",. c #D9C628",
"<. c #F7D928",
"1. c #E7CA35",
"2. c #EDCE2B",
"3. c #FEE627",
"4. c #FDE536",
"5. c #94864D",
"6. c #AD954B",
"7. c #B5A54D",
"8. c #88887A",
"9. c #968878",
"0. c #958C6E",
"q. c #A99370",
"w. c #B3A96B",
"e. c #FF875C",
"r. c #CCB450",
"t. c #CF886F",
"y. c #F68D6C",
"u. c #CBB775",
"i. c #D4BB6A",
"p. c #F5AE75",
"a. c #F0D24D",
"s. c #FAE146",
"d. c #D4C57E",
"f. c #E8CD74",
"g. c #D5C146",
"h. c #7F7E83",
"j. c #A57B83",
"k. c #D57D88",
"l. c #7C8883",
"z. c #8B8C84",
"x. c #898886",
"c. c #958A86",
"v. c #8C9386",
"b. c #97958A",
"n. c #999995",
"m. c #8D8F93",
"M. c #A69B96",
"N. c #AD938C",
"B. c #A7A59A",
"V. c #B6AC94",
"C. c #9CA8A6",
"Z. c #A9AAA6",
"A. c #B7A9A7",
"S. c #AAB5AA",
"D. c #B9B5AB",
"F. c #BABBB6",
"G. c #B3B0B3",
"H. c #99A298",
"J. c #D1948A",
"K. c #EC9392",
"L. c #D4B195",
"P. c #F9B394",
"I. c #CAB8AE",
"U. c #F1B7B0",
"Y. c #F69CA6",
"T. c #BEC7BA",
"R. c #B7C391",
"E. c #D2C48B",
"W. c #EEDC8A",
"Q. c #F9E998",
"!. c #D6C4A7",
"~. c #C7C6BA",
"^. c #D5CFB7",
"/. c #FBC2B7",
"(. c #E6DABB",
"). c #F3D0AE",
"_. c #FCF8B9",
"`. c #F4E7B2",
"'. c #D8EBBE",
"]. c #BEBEC6",
"[. c #C9BEC1",
"{. c #D2BDC3",
"}. c #FFBAC4",
"|. c #BBC2C3",
" X c #C7CAC6",
".X c #D6CCC6",
"XX c #CAD4CA",
"oX c #D8D7CA",
"OX c #D8CDD4",
"+X c #CCD7D7",
"@X c #D5D5D5",
"#X c #D4DBD3",
"$X c #DBDBD5",
"%X c #DBD5DB",
"&X c #D5DCDB",
"*X c #DCDCDC",
"=X c #D7D5D7",
"-X c #E7DAC9",
";X c #F8DBC9",
":X c #E3DCDD",
">X c #E4D9D5",
",X c #F9DBD5",
"<X c #F2C7C7",
"1X c #DCE3DC",
"2X c #D8E5D8",
"3X c #D9E1CC",
"4X c #EAE5C9",
"5X c #F8E8C6",
"6X c #FEF7CB",
"7X c #E2E4DC",
"8X c #E8E6D9",
"9X c #F9E8D8",
"0X c #FEF8D9",
"qX c #EEF8DC",
"wX c #D6DCE3",
"eX c #DDDCE2",
"rX c #D7D8E6",
"tX c #D8CFE0",
"yX c #E2DDE3",
"uX c #E9DDE4",
"iX c #E4DBEA",
"pX c #FBD9E5",
"aX c #FFCFE0",
"sX c #DCE3E3",
"dX c #DBE7E7",
"fX c #DFE2F3",
"gX c #E3E3E3",
"hX c #EBE4E3",
"jX c #E4EAE5",
"kX c #EBEBE5",
"lX c #E4E4EB",
"zX c #EBEBEB",
"xX c #E7E6EB",
"cX c #FAE9E8",
"vX c #EBF5EA",
"bX c #FFFDE5",
"nX c #F3F4EC",
"mX c #FDF4EC",
"MX c #F5FBEC",
"NX c #FDFCEB",
"BX c #F9F3E6",
"VX c #EDEBF3",
"CX c #E6E6F3",
"ZX c #FDEEF2",
"AX c #F5EAF3",
"SX c #EDFCF4",
"DX c #EBF5F6",
"FX c #F4F4F4",
"GX c #FDF4F4",
"HX c #F5FCF4",
"JX c #FCFCF5",
"KX c #F5F4FB",
"LX c #FDF5FD",
"PX c #F4FCFC",
"IX c #FDFDFD",
/* pixels */
"KXIXIX1X*XgXLXIXIX:X*X1XIXIXIX$X3X3XNXNXJX3X2X7XJXJXIX1XjX&XIXPXIX&X$X1XJXIXPX2XsX+XPXPXIXhX%XhXGXIXIX=X&XgXIXIXIXeX@X7X",
"IXIXIXgX*XgXKXIXPXgX=XgXIXIXKXgX7X7XMXJXJX$X$X7XIXIXGX*XwX=XIXIXJX7X=X7XHXIXHXsX&X2XIXIXIX:X=XuXIXIXIXgX*XjXKXLXIXhX&X*X",
"IXIXzXgX=XhXHXIXIXzX@X7XKXIXFXgXwXlXDXIXIXzXyXeXIXLXAXxXyXuXLXLXLXkX$XyXIXIXFXgX&XsXPXIXIXzX>X*XIXIXzXhX=XhXFXIXnXkX7X*X",
"=XgXzXIXIXIXgX*X=XIXIXIX7X=X*XIXIXIXeXiXrXKXLXIXyXxXxXLXKXAXyXxX>XIXLXJX:X>X:XIXIXHXgX+X*XPXIXIX*XgXzXIXIXPXgX7XzXKXIXIX",
"*X*X7XKXKXIXgX*XgXIXIXIXgXsX*XLXLXLXCXiXiXLXIXLX+X&XsXPXIXDX+XwXgXLXLXLXuXuX>XIXLXIXhX=XjXIXIXHXsX*X*XKXKXKXgXgX*XFXIXIX",
":XgXzXIXIXIXgX*X*XGXIXKXgX*XhXIXIXIXxX%XeXKXIXPXlXdXsXPXPXSX+XsX:XLXIXLXuXuXhXLXLXIXgXyX*XDXIXPX*X7XzXIXIXIXgX$XzXPXIXKX",
"IXIXFX*XsXhXHXIXKXjX*XgXHXLXJXgXyXhXGXIXKXkX7X1XHXHXvXvXHXHX3X2XKXhXyXlXGXLXLXuX>XuX:XIXJXjX1X1XIXIXFXgXsXhXFXIXFXhXyX1X",
"IXIXIXgX*X7XKXIXIX*X*XgXIXIXIX*X$X$XJXJXJX$X#X7XJXIXJXkXIXIX>X@XIXwX*XsXIXIXIX*XhXOX[.LXIX:X@XsXIXIXIX*X*X7XIXIXIXgX=X*X",
"IXIXFX1XgX7XKXIXKXzXgX*XIXIXKXgX1X8XMXnXJX1X$X8XJXGXZXZXLXLXpX.XgXDX+XjXSXIXSXhXAXG.[.LXnXkX&XjXIXKXJXgXhXgXPXIXKXgX1XgX",
"=XgXzXIXIXFX7X=X7XKXIXJXgX=XjXIXMXnXgX1XkXJXJXIX:X:XcXZXLXLXpX{.[.HXPXSX2X&XdXSXOXM.I.hXhXGXFXPX*XgXzXIXIXFXgX=XzXJXIXKX",
"gX=X=XIXIXIXgX*XjXKXIXIX*X*X7XKXIXIX*X+X&XIXPXPXdXwXdXDXFXFXiXOXS.nXIXHX2XdXvXvXI.H.A.>X>XLXIXIXgX=X@XKXKXIXgXgX@XIXIXIX",
"*XsXhXIXIXIXgX*XhXFXIXIXgX*XxXIXGXLXxXlXxXPXPXDXjX2X&XdXzXjXgX=XA.oXnXkXdXSXSXXXG.n.A.hXhXGXFXHXsXgXkXIXIXPXhX*XgXIXIXKX",
"IXIXFX*X*XgXKXIXIXgX:XhXIXIXPX:XeXVXLXVXFXgX1XgXJX7X3X8X7X$X^.!.I.I.>XkXqXMX2XT.n.c.A.LXGXjX1XzXIXKXFX*XeXgXJXIXHX:X*XgX",
"IXIXIX1X:XeXIXIXHX*X*X*XFXPXIXgXrXlXKXFXFX@XoX8XNX;X(.;X`./.)./.K.N.U.FXNX8XXXS.c.z.A.IXIX*XXX1XIXIXIXgXyX7XKXIXIXgX=XyX",
"IXIXFXsX*XgXIXIXIX*X@X@X*XPXLX*XsXdXzXFXJX9X4X5X/.P.p.t.t.T T T U L U.cX8X^.D.n.z.c.Z.cXGXgX2XdXIXIXnX*X*XgXIXIXFXgX7XgX",
"wXgXgXIXIXIXgX=XhXPXIXzXG.T.7XzXHXSX7XBX9X9XL.J.t.t.t.R R D A S y U mXNX.XI.D.c.Q v.n.=XnXKXPXPX*X7XsXJXHXPXgX=XgXKXIXHX",
"dXwXwXPXKXKXuX:X#XIXIXIXXXS.G..X7XzXBX-XJ.t.J.P.).).).p.e.R D S T BX9XoX(.B.N.j.h.l.C.|.>XLXGXIX7X1XoXvXHXsX+XT.*XPXIXIX",
"wXfX+XdXPXIX>X>XsXvXGXJX#XS.B.A.I.#X8X;XU.U./.5X5X`.).P.y.R D A E 0X4XD.I.M.N.I 0 h.l.&XcXAXIXFX#X8XFXkX@XF.Z.&XzXPXIXIX",
"DXIXDXXXVXIXGXnXSX2X7XkXdX|.B.b.b.D..X4X;X;X,X0X0X6X`.P.e.e.D A S P.).V.M.9.P 7 8 P c.I }.pX.X=X>X7X$XF.Z.H.G.IXVXsXwXyX",
"IXIXIX+XI.$XIXGXHX1X#X$X3X2XD.n.8.v.Z.~.XXoX-X-X5X5X).p.e.F A k e Y t.J.N.I 5 7 7 7 U t t U.<X X.X~.M.z.x.Z.hXIXIXxX&X&X",
"GXcXJX7X~.A.=XzXvXHXvXjX[.OXI.Z.8.0.j.m.C.|.F.I.U.P.p.e.F D A k j p y J L K 5 5 5 K U O O G U.I.M.M.8.8.c.F.LXIXFXsXeXgX",
"cX:XjXMXHXI.B..X1XvXvXkX}.<X.XZ.9.8.7 h.l.C.M.V.t.K.R F D A k h f i p u $ t 4 < 1 H t w w w t N.9.P c.c.Z.:XzX*XzXFXIXIX",
">X>X#XHXIX$XM.B.T.~.oX8XU.Y.).I.V.9.I 7 h.h.m.j.T R D D A k j j i i r q w o O O $ X O w q q q G U I c.M..XIXyX@X*XFXIXIX",
",X:X1XPXIXIX Xz.H.B.~./.Y.G L.).N.N.P 7 0 3 7 L y c k k k k s i p p e q q o O O X O X O o o w O 7 c.P D.IXJXhXyXgXIXIXKX",
"LXLXPXdX+XdXSXF.8.N.q.J.Y Y t./.A.c.j.0 3 3 6 H r k h h j i d p e q w w t H U J.I.!.!.!.L.U H $ # P M.>X:X:XLXIXIXsX&XhX",
"LXPXPXdX+XfXIXkXB.I L E x x S P.L.m.h.9 5 4 Z u e k h j i d e q q J E <XcXcXGXGXbXMXMXbXmX9X<X/.j.I .X$X:X>XIXIXIXhX%XeX",
"IXPXDXDXsXzXPXIX>XU L Y c c v y.U.n.I H H t y e d j j i e q r W /.9XNXJXGXGXGXpX9X-X^.T.I.D.D.D.A.M.I.hX:XhXzXGXzXlXeX*X",
"CXfXfXPXDXPXsX7X,XU.W x c z k x J.k.U J G r e p i i i e q W }.pXBXNXJXMXkX>X.XI.I.M.b.8.8.Q Q l.v.b.P Z.nXIXzXgXzXIXIXIX",
"+XwXwXIXIXIX2X@X-X9XY z z h k s l x x r p p a a a e q J }.ZXNXJXJXBX8X=X|.C.x.8.P 8 8 8 Q 0 Q Q 8 8 0 0 A.IX*X&X*XKXIXIX",
"gXhXxXGXPXFXjX7X,X,Xx z h f h f s s a p a s a r q G Y.ZXLXZXvXvX9X~.B.c.l.9 Q l.9 8.l.z.z.l.Q Q Q b.9 8.5 |.gX1XzXKXIXPX",
"HXJXGXhXyX7XvXmXGXY.l z g f f f f f i i a p e u k.pXIXcXmXNX2XT.H.v.x.x.m.l.x.l.v.b.n.b.b.M.n.n.z.b.x.8.9 8 KXIXVXdXsXeX",
"IXIXJX>X$X2XIXJXLXY l g g z f f f g j a e q Y <XGXIXIXHX1X~.B.8.z.z.9.9.c.b.b.M.b.N.q.9.9.c.v.v.n.b.l.v.z.0  XIXIXgX=XeX",
"LXLXMXoX2X2XSXKX9Xy j f f g g g f j s r y K.cXGXJXSX2X~.M.b.b.c.c.c.N.q.0.0.K 6 C $ & +   # 3 5 9 m.n.x.z.8 Z.IXFXiXiXyX",
"iXiX8XMXHXSXlXpXU.r s j g g g a s a e Y <XcXcXJX7X~.Z.H.c.z.c.b.c.M.I 5.2 , > b b B B : + # 3 < 3 0 m.c.8.Q b.jXVXKXLXLX",
"uXyXoXJXIXLXiXpXK.w d i f i l l r y Y.ZXZXcXcX XZ.n.b.z.x.v.H.H.m.x.5 < , ! ` ` ) ` ( ! : # # 3 3 3 Q b.8.8.8.2X*XKXIXIX",
"yXhX8XIXLXLXpXaXk.w e v d e r y k.pXZXcXZX.XZ.Z.n.x.8.b.B.B.9.5 9 C. XR.Q { ` ,.X.+.[ B 2 3 3 0 3 5 8 8.v.Q v.8XxXGXIXLX",
"SXIXPX=XyXuXZXpXj.$ u u w y J.,XLXLXAX=XT.C.m.m.m.x.N.V.0.2 : < B.&XdXKX4 < , ! ~ ( [ @ & 4 # 3 4 5 6 8.v.8 Z.MXnXgX>XyX",
"SXSXPXdXyX%XcXcXZXU.u.J.).0XcXZXVXrX|.C.m.l.l.x.n.M.N.K : ; B N V.2XrXlX5 . 5.7.N [ 6.C 1 2   # 4 6 Q Q Q 0 ~.IXJXhX=X%X",
"SXSXDXdX=XoXhXJXLXLXGXNX0XNXmXzX|.S.m.Q Q v.b.H.M.I 1 = n @.O. .d.T. XOX~.I L.7.r.+.{ q.L K & & 1 8.8.9 Q C.1XHXnX7X:XgX",
"2X2XwXPXmX-X.XBXLXAXAXFXqX3XF.Z.m.9 Q v.8.8.b.9.6 + @ B @.2.$.$.} E.~.-X!.).u.r.1.1.N r.6.6.2 % * 6 8 9 m.2XvX1XjXnXIXIX",
"*X:XyXGXbX(.V.^.OXtXrX].G.m.m.x.Q 8.0.0.0.q.K 1 @ @ @ b o.<.%.%.X.+.i.i.g.,.1.<.:.&...V ~ [ N , : Q N. XFXIXsX&X$XJXIXIX",
":XyXAXJXbX'.w.Q c.c.l.j.h.j.P 7 8.0.0.q.K , : B : ; @ ; | 2.*.;.:.&.g.a.g.,.*.;.%.%.O./ _ _ M N B 5.6XJXLXKXCXgXkXHXIXLX",
"LXLXFX*X4X'.R.w.9.8.P 9 0 j.c.c.Q 0.2 * = N V n V V b ; b / ,.<.*.%.*.<.4.3.:.>.>.;.&. .~ m m ( ( C 6XBXrXCXKXDXvX7X*XeX",
"LXLXIX8X^.R.w.2 K K 0.8.8.I K K 3 < * - m V ^ ..| ../ m ; > { +.&.%.:.3.3.3.:.*.$.o.o.| ~ n M +.+.! L.4XOXiXIXIXJX7X*X%X",
"LXFXDXdX2X'._.W.] , * * & + * < 5 6 2 - n ..O.=.O.O.o.~ > - > B _ | o.X.2.,.X.o. . .^ V n n | 2.#._ 7._.cXhXFXIXMX2X:XiX",
"zXyXdXSXPXqX_.f.} m - %     .   # 2 C , | 2.O.%.%.%.$.o.M ; = = ; b b M ( ( ~ ~ V V V n n | 2.=.$.' ( `.bXGX:X3XqXnXLXIX",
":XyXwXPXIXbX).i.a...M - % % % % & P.`.[ ^ 2.:.%.-.-.>.*. .^ n Z = ; ; - > ; > ~ V N n | X.=.*.%.-.=.+.f.5XJX9X#X4XvXIXIX",
":XlXwXPXLX0X`.f.s.<.X.~ > ; - = : u.Q.i.@.2.$.>.;.-.-.>.<.<.@.V @ - - % * - N i.`.[ n  .*.%.-.%.%.:.4.r.d.5X4XoX7XIXIXLX",
"IXIXPXlX@X-X_.r.s.4.3.#.o.~ V n n N f.W.| 2.*.%.;.;.-.-.>.;.4.1.[ @ - - + 2 & V._.] M  .*.:.-.%.-.%.#.4.+.d.0XMXLXuX:XhX",
"HXIXPXxX:X4X_.7.} 4.2.#.*.O.O.a.| [ f.W.| O.$.%.*.:.-.-.>.-.:.<.a.| - C 6 5.B.!.`.6.m ) &.*.%.#.%.3.=.,.a.r.6XJXLXCX%X*X",
"PXIXVXiX>X8X0X`.7.} ( ( | +.[ ( r.[ r.f._  .*.*.3.:.;.-.-.%.=.4.*.s.a.Q.6XNXJXgXBXV., B } 1.3.o._ <.,.` g.w.6XGXAXfX&X*X",
"&XCXCXIXLXZX8X4X`.Q.Q.W.6.5.K 6.{ 6.d.Q.{ ! '  .#.&.*.;.-.-.#.3.2.,.a.W.(.8XiXKXLXJXI.w.N { } ` m } { 7.6.L.9X:XVXLXPXIX",
"iXyX%XLXLXLX7X>X-XbXbX0X4X(.^.bX-XNX9X>X!.6.B ! ( +.&.3.%.$./ X.a.} } _.6XoXwXIXIXIXkX4X`.`.w.5.W.d.u.6X'.0XqX@XrXKXPXPX",
"%XxXCXGXIXLXlX@X*XFXIXMX7X&XhXIXJXIXtXtXJX6X`.W.E.r.[ ( ` ` ! ! { { 6.`.4XoXwXPXPXzXkX>X8XbX0XbX8X`.(.bX0XMXgXrXCXPXPXPX",
"IXIXJX$X@X7XKXIXIXwXrXCXDXIXIX#X3X2XIXIXGX4X9X4XNXbX6X!.w.q.!.0XL.L.-X0XMXIXSX1X2XqXJXJXvX1XeXiXvXJXIX>XgXgXKXIXDXdXdX2X",
"IXmXMX8X7X7XJXIXPXCXfXrXIXPXSX1X3X2XIXIXLX*X>X>XLXLXZX9X8X-XLXLXLX:X>X$XIXHXPX3XXX2XMXIXIX*XCXrXIXLXIXeX&XgXPXIXPX1X@X1X",
"IXJXvX8XoXqXnXIXPXCXrXfXPXIXvX2X3XkXFXLXKXAX*XyXLXLXAXhX$XqXAXLXLXAXOXxXPXPXDXdX1XkXvXJXFXcX*XeXIXIXVXCX*XzXHXJXvXkX$X2X",
"*XsXkXJXnXMX7X*XsXLXLXKXgX7X4XNXJXHXxXVXlXKXKXLXeXxXzXPXHXMXjXeXyXLXIXKXfXdXdXPXIXFX8XkX8XmXmXIXeXiXCXIXKXHX8X$XvXNXFXJX",
"rXwXsXIXIXIXsX%XeXIXIXIX>XoX4XNXJXGXeXeXyXIXIXIX&XwXsXPXHXHX2X#X1XJXIXIXsX+XwXIXLXLX:X:X>XJXJXIX@X*XyXIXIXIX2XoXoXNXJXIX",
"fXrXrXPXIXPXlXsXlXLXIXLX7X>X:XNXJXJXgX:XgXIXIXPXlX&X2XHXSXMX2X2X2XJXIXPXsXwXsXIXIXLXuX:X8XJXJXNX8X*X*XLXIXmX8X4X4XNXIXJX"
};
