/* XPM */
static char *result[] = {
/* columns rows colors chars-per-pixel */
"60 60 176 2 ",
"   c #1C070D",
".  c #1C080E",
"X  c #1D0B12",
"o  c #210E15",
"O  c #280F13",
"+  c #221017",
"@  c #25131A",
"#  c #28161D",
"$  c #2A151A",
"%  c #361D1F",
"&  c #3D1D1B",
"*  c #2C1B23",
"=  c #2C1F28",
"-  c #351E20",
";  c #2F222B",
":  c #33252D",
">  c #35282F",
",  c #362931",
"<  c #392D35",
"1  c #3E323A",
"2  c #46221E",
"3  c #4D2822",
"4  c #562E27",
"5  c #512F2B",
"6  c #5B3128",
"7  c #563029",
"8  c #41363E",
"9  c #643529",
"0  c #7A4331",
"q  c #784738",
"w  c #453C45",
"e  c #493E45",
"r  c #453B44",
"t  c #4B434C",
"y  c #4F4851",
"u  c #524D56",
"i  c #554F58",
"p  c #56515A",
"a  c #59555E",
"s  c #654C4A",
"d  c #5A5660",
"f  c #5D5A64",
"g  c #605F69",
"h  c #605D66",
"j  c #64626B",
"k  c #686770",
"l  c #6A6B75",
"z  c #6C6E79",
"x  c #676771",
"c  c #6F727D",
"v  c #72727C",
"b  c #7D7174",
"n  c #874B35",
"m  c #995A43",
"M  c #865E52",
"N  c #8C6559",
"B  c #AC6649",
"V  c #B46B4B",
"C  c #A7715C",
"Z  c #AD7863",
"A  c #BC7E63",
"S  c #96807C",
"D  c #C48469",
"F  c #C8876A",
"G  c #737681",
"H  c #747A85",
"J  c #787E89",
"K  c #7C818D",
"L  c #7F8691",
"P  c #59A7D2",
"I  c #5DA9D3",
"U  c #63ABD4",
"Y  c #6AAED4",
"T  c #6CB1D7",
"R  c #6CB1D8",
"E  c #75B1D4",
"W  c #7AB4D5",
"Q  c #73B4D9",
"!  c #7CBADC",
"~  c #78B6D9",
"^  c #828994",
"/  c #868E9A",
"(  c #808590",
")  c #89929E",
"_  c #86919E",
"`  c #8B8387",
"'  c #AD8D82",
"]  c #A5938F",
"[  c #BB9E94",
"{  c #BD9788",
"}  c #8A95A1",
"|  c #8D99A5",
" . c #8E9CA9",
".. c #859AAA",
"X. c #929BA6",
"o. c #919EAA",
"O. c #94A1AD",
"+. c #8FA4B5",
"@. c #99A6B3",
"#. c #9AA9B6",
"$. c #9CACBA",
"%. c #97A9B6",
"&. c #9DB0BE",
"*. c #A9A6A9",
"=. c #B7AEAD",
"-. c #A1AFBB",
";. c #A0B0BE",
":. c #C7A08F",
">. c #CAA495",
",. c #C3BBB9",
"<. c #8FB2C7",
"1. c #9EB3C2",
"2. c #84B6D3",
"3. c #8FBCD7",
"4. c #83BDDD",
"5. c #8CBDDA",
"6. c #87B8D4",
"7. c #95BCD4",
"8. c #9BBCD1",
"9. c #93BFD8",
"0. c #A2B5C2",
"q. c #A6B8C6",
"w. c #ABB9C4",
"e. c #A4BECE",
"r. c #A9BDCB",
"t. c #B1BFC9",
"y. c #A1BED1",
"u. c #80BFE1",
"i. c #8BC2DF",
"p. c #97C3DC",
"a. c #9BC4DC",
"s. c #ABC0CF",
"d. c #BCC1C7",
"f. c #A4C1D4",
"g. c #ADC4D3",
"h. c #ABC7D9",
"j. c #ACCBDC",
"k. c #A3C6DA",
"l. c #B2C8D6",
"z. c #B3CCDC",
"x. c #B9CBD6",
"c. c #B9D0DF",
"v. c #B6D0DF",
"b. c #88C2E2",
"n. c #93C6E1",
"m. c #96C8E3",
"M. c #9CCCE4",
"N. c #99CDE9",
"B. c #9CD0EC",
"V. c #A2CEE4",
"C. c #AACEE1",
"Z. c #A0CEE8",
"A. c #A6D1E6",
"S. c #ACD5E9",
"D. c #A8D4EB",
"F. c #B6D2E2",
"G. c #BBD5E5",
"H. c #BED8E7",
"J. c #B2D6E9",
"K. c #B3DAED",
"L. c #BED9E8",
"P. c #A4D6F0",
"I. c #B7DDF1",
"U. c #BADEF0",
"Y. c #BDE3F5",
"T. c #C6C4C5",
"R. c #C0D1DC",
"E. c #C4D9E5",
"W. c #C2DCEB",
"Q. c #C3E4F5",
"!. c #CAE6F5",
"~. c #C1E7F9",
"^. c #CBECFC",
"/. c #C6E8F9",
"(. c #D1EFFE",
"). c None",
/* pixels */
").).).).).).).).).).).).).).).).).).).).).).).).).).).).).).).).).).).).).).).).).).).).).).).).).).).).).).).).).).).).",
").).).).).).).).).).).).).).).).).).).).).).).).).).).).).).).).).).).).).).).).).).).).).).).).).).).).).).).).).).).).",
").).).).).).).).).).).).).).).).).).).).).).).).).).).).).).).).).).).).).).).).).).).).).).).).).).).).).).).).).).).).",
").).).).).).).).).).).).).).).).).).).).).).).).).).).).).).).).).).).).).).).).).).).).).).).).).).).).).).).).).).).).",
").).).).).).).).).).).).).).).).).).).).).).).).).).).).).).).).).).).).).).).).).).).).).).).).).).).).).).).).).).).).",
").).).).).).).).).).).).).).).).).).).).).).).).).).).).).).).).).).).).).).).).).).).).).).).).).).).).).).).).).).).).",
").).).).).).).).).).).).).).).).).).).).).).).).).).).).).).).).).).).).).).).).).).).).).).).).).).).).).).).).).).).).",
").).).).).).).).).).).).).).).).).).).).).).).).).).).).).).).).).).).).).).).).).).).).).).).).).).).).).).).).).).).).",
").).).).).).).).).).).).).).).).).).).).).).).).).).).).).).).).).).).).).).).).).).).).).).).).).).).).).).).).).).).).",
").).).).).).).).).).).).).).).).).).).).).).).).).).).).).).).).).).).).).).).).).).).).).).).).).).).).).).).).).).).).",
").).).).).).).).).).).).).).).).).).).).).).).).).).).).).).).).).).).).).).).).).).).).).).).).).).).).).).).).).).).).",
").).).).).).).).).).).).).).).).).).).).).).).).).).).).+ X X X ).).).).).).).).).).).).).).).).).).).).).).).).).).).).",
").).).).).).).).).).).).).).).).).).).).).).).).).).).$ * @ @ @ @ ).).).).).).).).).).).).).).).).).).).).).).).).).).).",
").).).).).).).).).).).).).).).).).).).).).).).).).).% - * - - - - - ).).).).).).).).).).).).).).).).).).).).).).).).).).",
").).).).).).).).).).).).).).).).).).).).).).).).).& 4 4 6 6 6 6 4 3 & ).).).).).).).).).).).).).).).).).).).).).).).).).",
").).).).).).).).).).).).).).).).).).).).@ o X . O 2 9 9 n n n n 0 9 3 O X X + @ ).).).).).).).).).).).).).).).).).).).).",
").).).).).).).).).).).).).).).).).).).@ @ @ + @ * 5 q m B V V B n q 7 % @ + @ @ @ ).).).).).).).).).).).).).).).).).).).",
").).).).).).).).).).).).).).).).).).).@ @ * ; < t s N Z D D D A C b s 8 , = * @ + ).).).).).).).).).).).).).).).).).).).",
").).).).).).).).).).).).).).).).).).).o * : w f v ` ] [ >.>.:.{ ' Z b j y 8 ; # + ).).).).).).).).).).).).).).).).).).).",
").).).).).).).).).).).).).).).).).).).o * 1 f L @.w.T.T.T.,.,.=.*.*.X./ G u < * o ).).).).).).).).).).).).).).).).).).).",
").).).).).).).).).).).).).).).).).).).o * w z O.l.E.W.W.E.R.x.t.q.w.0.#./ f 1 * o ).).).).).).).).).).).).).).).).).).).",
").).).).).).).).).).).).).).).).).).).X * e l | 0.l.G.W.W.H.c.g.r.0.#.X.K f r * X ).).).).).).).).).).).).).).).).).).).",
").).).).).).).).).).).).).).).).).).).).).r a l J X.$.l.G.G.v.g.1. .K z f y 1 ).).).).).).).).).).).).).).).).).).).).).",
").).).).).).).).).).).).).).).).).).).).).).1 r u x / 0.l.c.c.s.$.L g t 1 , ).).).).).).).).).).).).).).).).).).).).).).",
").).).).).).).).).).).).).).).).).).).).).).; : 8 d K %.g.z.z.g.%.J a 8 : * ).).).).).).).).).).).).).).).).).).).).).).",
").).).).).).).).).).).).).).).).).).).).).).1 t a l / $.f.z.j.g.1.) z a t 8 ).).).).).).).).).).).).).).).).).).).).).).",
").).).).).).).).).).).).).).).).).).).).+ 1 a c ^  .$.e.j.C.C.j.f.&.o.^ v a 1 + ).).).).).).).).).).).).).).).).).).).).",
").).).).).).).).).).).).).).).).).).).. * w z o.r.h.C.C.C.V.C.C.C.j.l.e.O.z e * . ).).).).).).).).).).).).).).).).).).).",
").).).).).).).).).).).).).).).).).).).: 1 a L 0.G.Y.Y.S.A.V.V.V.Z.K.I.J.8.L d 8 : ).).).).).).).).).).).).).).).).).).).",
").).).).).).).).).).).).).).).).).).w u j H O.h.L.Y.Y.S.A.M.m.n.N.B.P.D.9.L H f i e ).).).).).).).).).).).).).).).).).).",
").).).).).).).).).).).).).).).).$ 1 d H ) %.s.j.K.Y.K.S.A.m.i.! ! ! b.b.3.<.+.} H f 1 # ).).).).).).).).).).).).).).).).",
").).).).).).).).).).).).).).).  # 8 k | s.v.J.S.S.S.S.A.M.n.! Q R U R Q 4.m.j.r.X.x 8 # . ).).).).).).).).).).).).).).).",
").).).).).).).).).).).).).).).. # 8 l @.H./.Y.K.A.A.M.M.n.i.Q Y I I P Y ! N.I.F.@.x 8 $ . ).).).).).).).).).).).).).).).",
").).).).).).).).).).).).).).).. # 8 l $.W.^.~.K.A.M.a.i.i.~ R U I P P I ~ m.S.z.o.x 8 # . ).).).).).).).).).).).).).).).",
").).).).).).).).).).).).).).).. # 8 z #.H./.~.K.A.m.i.! Q R Y U I I I U Q i.V.s.| j 8 # X ).).).).).).).).).).).).).).).",
").).).).).).).).).).).).).).).. $ 8 l @.G.!.~.K.A.i.i.Q Y U U U U U I Y ~ 3.f.q./ h < # . ).).).).).).).).).).).).).).).",
").).).).).).).).).).).).).).).. # 8 l @.H.^.Q.Y.S.a.! Q I I I U U Y Y E 2.7.f.0./ h 1 # X ).).).).).).).).).).).).).).).",
").).).).).).).).).).).).).).).. # 8 l $.W.(.^.Q.K.N.4.T I P P I U T W 2.7.f.h.q./ f < # . ).).).).).).).).).).).).).).).",
").).).).).).).).).).).).).).).. # 8 l @.W.(.(.!.U.A.i.Q U P I U Y W 6.8.f.h.g.0./ f < # o ).).).).).).).).).).).).).).).",
").).).).).).).).).).).).).).).. # 8 x O.l.W.!.!.Y.S.n.~ T I U Y E 2.8.e.s.s.w.$.( f 1 $ . ).).).).).).).).).).).).).).).",
").).).).).).).).).).).).).).).).# 1 f K O.q.x.W.Q.I.N.5.W E W W 6.9.f.r.q.$.o.^ z u < # ).).).).).).).).).).).).).).).).",
").).).).).).).).).).).).).).).).).< t f z ^ -.c.!.~.J.M.9.3.9.9.p.k.l.g.-.) v f u w , ).).).).).).).).).).).).).).).).).",
").).).).).).).).).).).).).).).).).).> < w g / s.W.Q.G.h.y.y.y.y.y.h.l.r.o.H i 8 , : ).).).).).).).).).).).).).).).).).).",
").).).).).).).).).).).).).).).).).).).o * t G @.g.l.r.0.$.$.#.#.$.;.;.@./ j r * o ).).).).).).).).).).).).).).).).).).).",
").).).).).).).).).).).).).).).).).).).).@ 8 g J ) ) / ( K J K ( K K ( J l p < @ ).).).).).).).).).).).).).).).).).).).).",
").).).).).).).).).).).).).).).).).).).).).< t a f f a p i i i i p p i u y r > ).).).).).).).).).).).).).).).).).).).).).",
").).).).).).).).).).).).).).).).).).).).).)., < < , , , : > > > > > > > > : ).).).).).).).).).).).).).).).).).).).).).).",
").).).).).).).).).).).).).).).).).).).).).).).o @ @ @ O @ @ @ @ @ o @ @ @ ).).).).).).).).).).).).).).).).).).).).).).).",
").).).).).).).).).).).).).).).).).).).).).).).).      . . . . . . . . . ).).).).).).).).).).).).).).).).).).).).).).).).",
").).).).).).).).).).).).).).).).).).).).).).).).).).).).).).).).).).).).).).).).).).).).).).).).).).).).).).).).).).).).",
").).).).).).).).).).).).).).).).).).).).).).).).).).).).).).).).).).).).).).).).).).).).).).).).).).).).).).).).).).).).",
").).).).).).).).).).).).).).).).).).).).).).).).).).).).).).).).).).).).).).).).).).).).).).).).).).).).).).).).).).).).",
").).).).).).).).).).).).).).).).).).).).).).).).).).).).).).).).).).).).).).).).).).).).).).).).).).).).).).).).).).).).",
").).).).).).).).).).).).).).).).).).).).).).).).).).).).).).).).).).).).).).).).).).).).).).).).).).).).).).).).).).).).",
").).).).).).).).).).).).).).).).).).).).).).).).).).).).).).).).).).).).).).).).).).).).).).).).).).).).).).).).).).).).",
").).).).).).).).).).).).).).).).).).).).).).).).).).).).).).).).).).).).).).).).).).).).).).).).).).).).).).).).).).).).",
").).).).).).).).).).).).).).).).).).).).).).).).).).).).).).).).).).).).).).).).).).).).).).).).).).).).).).).).).).).).",
").).).).).).).).).).).).).).).).).).).).).).).).).).).).).).).).).).).).).).).).).).).).).).).).).).).).).).).).).).).).",
").).).).).).).).).).).).).).).).).).).).).).).).).).).).).).).).).).).).).).).).).).).).).).).).).).).).).).).).).).).).",
").).).).).).).).).).).).).).).).).).).).).).).).).).).).).).).).).).).).).).).).).).).).).).).).).).).).).).).).).).).)."
};
