/* XPM */
static char *exit_60x601647210020[] = {
/* columns rows colors chars-per-pixel */
"60 60 98 2 ",
"   c #000100",
".  c #022500",
"X  c #022F00",
"o  c #033300",
"O  c #073A04",
"+  c #083E05",
"@  c #232323",
"#  c gray17",
"$  c #353535",
"%  c #044E00",
"&  c #0F4C0B",
"*  c #045100",
"=  c #13560F",
"-  c #164D12",
";  c #145710",
":  c #0D6207",
">  c #056E00",
",  c #136C0D",
"<  c #067000",
"1  c #097703",
"2  c #0A7A04",
"3  c #1B6315",
"4  c #1F6C19",
"5  c #177911",
"6  c #20701A",
"7  c #255123",
"8  c #267F22",
"9  c #464646",
"0  c #4D4D4D",
"q  c #555555",
"w  c #626262",
"e  c #6E6E6E",
"r  c #747474",
"t  c #0F8308",
"y  c #118709",
"u  c #138B0C",
"i  c #16920E",
"p  c #189610",
"a  c #1A9B12",
"s  c #24901C",
"d  c #26991E",
"f  c #1EA516",
"g  c #20A717",
"h  c #21AB19",
"j  c #25B21B",
"k  c #27B81E",
"l  c #28BA1F",
"z  c #278223",
"x  c #288323",
"c  c #288C20",
"v  c #3D8038",
"b  c #2AA222",
"n  c #30AF27",
"m  c #36A02F",
"M  c #31AC28",
"N  c #2ABE20",
"B  c #33B62A",
"V  c #35BB2B",
"C  c #38A631",
"Z  c #29C01F",
"A  c #2DC423",
"S  c #2FC924",
"D  c #31CD26",
"F  c #35D52A",
"G  c #36D92B",
"H  c #39DF2E",
"J  c #3BE32F",
"K  c #3BE430",
"L  c #3EEA32",
"P  c #40EE34",
"I  c #44F537",
"U  c #44F937",
"Y  c #44F638",
"T  c #46FB39",
"R  c #48FF3B",
"E  c #4ACC41",
"W  c #50DA47",
"Q  c #55E54B",
"!  c #5EF953",
"~  c #61FE56",
"^  c #63FF58",
"/  c #838383",
"(  c #9B9B9B",
")  c #AEAEAE",
"_  c #B1B1B1",
"`  c #C6C6C6",
"'  c gray87",
"]  c #DEE3DE",
"[  c #DFE9DE",
"{  c #E0EDDF",
"}  c #E4E4E4",
"|  c #E1EBE1",
" . c #EAEAEA",
".. c #E4F4E3",
"X. c #E5F8E4",
"o. c #F7F7F7",
"O. c #F8F7F8",
"+. c #F9F9F9",
/* pixels */
"o.o.O.O.o.O.O.O.O.O.O.O.O.O.+.O.O.+.O.O.O.O.O.O.O.O.+.O.O.+.O.O.O.O.O.O.O.O.+.O.O.+.O.O.O.O.O.O.O.O.+.O.O.+.O.O.O.o.o.o.",
"o.o.O.O.+.+.+.+.+.+.+.+.+.+.+.+.+.+.+.+.+.O.+.+.+.+.+.+.+.+.+.+.+.+.+.+.+.+.+.+.+.+.+.+.+.+.+.+.+.+.+.+.+.+.+.+.+.O.o.o.",
"o.o.( / / / / / / / / / / / / / / / / / / / / / / / / / / / / / / / / / / / / / / / / / / / / / / / / / / / / / / (  .+.",
"O. .$                                                                                                             # | +.",
"O. .$   3 c c c c c c c c c c c c c c c c c c c c c c c c s s s c c c c c c c c c c c c c c c c c c c c c s s 3   # } +.",
"O. .$   B R R R R R R R R R R R ! R R R R R R R R R R R R ! R R R R R R R R R T ! R R R R R R R R R R R ! U R V   # } +.",
"O. .$   , g g f f f f f k U R R U T R R R D f f g f f f f f f f f f f f f f g d f f f f f f f f g f f f f f f 5   # } +.",
"O. .$   % < > > > > > > u I R R U T R T R j > > < > > > > > > > > > > > > > > > < < < < < > > < < > < < < > > *   # } O.",
"O. .$   s F F F h < < > u I R R R R R R ! f > f F F F A 1 < < < < < > < < < < < < > t D D 2 < l F F F F G j < *   # } O.",
"O. .$   M R R R A < < > u I R R R R T R L j > f R R R K 2 < < < < < < < < > < < < > u I I u 2 G R R R R T Z < *   # } O.",
"O. .$   M R R R N < < > u I R R T R R R T j > f R R R K 1 < < < < < < < < < < < < < 1 u p F H g u G R R ! Z < *   # } +.",
"O. .$   M R R T A < < > u I R R R R T T T j > j R R R K 2 < < < > < < < < < > < < < < 1 y J P a 2 D R R R A < *   # } o.",
"O. .$   M R U T N < < > u Y R R R R R R U j > f R R R K 2 < < < < < < < < < < < < > y J H i u D P Y R R R A < *   # } O.",
"O. .$   M R U ! A < < > u Y R R T R T R ! j > f R R R K 2 < < < < < < > < > < < < > y K J i t F P Y R R R A < *   # } O.",
"+. .$   M R R R N < < > u Y R R R R R R R h > h R R R K 1 > < < < > < < < < < < < < < 2 u J P a 2 F R R R S < *   # } O.",
"O. .$   M R R R A < < > u Y R R R T R R R h > h R R R K 2 > < < < < < < < < < < < < 1 u i G J a u F R R R S < %   # } O.",
"+. .$   M R R R A < < > u I R R R R R R R j > f R R R K 2 > < < < < < < < < < < > > y P P u 2 G Y T T T R S < *   # } O.",
"+. .$   M R R R A > < > u U T R T R T R T j > f R R R K 2 > < < < < < > < < < < < > y F F a i D H I R T R S < *   # } O.",
"+. .$   M R R R A > < > u Y R R R R R R T j > h R R R K 2 > < < < < < < < < < < < < > < 2 P T i < D ! L R A < *   # } O.",
"O. .$   M R R R A > < > u U T R R T R R Q h > h R R R K 2 > < < < < < < < < < < < < 2 a g D D h a H R R R A < *   # } O.",
"O. .$   M R R R N < < > u Y R R R T R R R j > f R R R K 2 > < < < < < < < > < < < > u R P y < H R R R R R A < *   # } O.",
"O. .$   M R R R A > < > u I R R R R R T R j > h R R R K 2 < < < < < > < < < < < < > 2 N A h h N A P R T R S < *   # } O.",
"O. .$   M R R R N < < > u I R R R T R R R h > h R R R K 2 < < < > < < < < < > < < < < > 2 P R u > D R R R A < *   # } O.",
"O. .$   M R R R A < > > u I R R R R R R R j > h T R R K 2 > > < < < < > < < < < < < 2 h k l l k j K R R R S < *   # } O.",
"O. .$   M R R R A > < > u Y R R R R R R T k > h R R R L 2 > > < < < < < < < < < < > u U I t < J R R R R R S < *   # } O.",
"O. .$   - 6 6 6 ; o o X + 6 6 6 6 6 6 6 6 & X = 4 4 4 3 O o o o o o o o o o X o o o + 4 4 O o 3 6 6 6 6 6 ; o .   # } o.",
"O. .$                                                                                                             # } o.",
"O.o._ ( $                                                                                                     # ( ) o.o.",
"o.o.+.O.q                                                                                                     0 o.+.o.o.",
"o.+.O.o.` _ q   - B V V M * * % * b V V B B V V A d * * * * * * * * * * * * 5 B d * : B B B V , * * * .   9 _ ` o.o.o.o.",
"o.o.O.O.+.+.r   6 R R R L 2 < < 1 K R R R R R T ! G 1 < < < < < < < < < 2 2 j T F 2 i T R R T i < < < o   w +.+.o.o.o.o.",
"o.o.O.O.O.O.e   6 R R T J 2 < < 1 J R R R T R T U F 1 < < < < < < < < > h J Z u f H L T R R T i < < > O   w +.+.o.o.+.o.",
"o.o.o.o.o.+.e   4 R R R J 1 < < 1 H R R R R R R R F 1 > < < < < > < < > N Y N 1 a I U R R R U i > < < o   w O.o.o.o.o.o.",
"o.o.o.o.O.+.e   6 R R R J 2 < < 1 H R R R R T R R F < < > < < < < < < < 2 y h P D y a I R R Y i < < < o   w O.o.o.o.o.o.",
"o.o.o.o.o.O.e   4 R R R K 1 < < 1 J R R R T R R R F 1 > < < < < > < < < 2 2 h P D t a U R R Y i < < < o   w O.o.o.o.o.o.",
"o.o.o.o.o.O.e   4 R R R K 1 < < 1 H R R R R R R R F < < < < < < < < < > j I A 2 d L I T R R Y i < < < o   w O.o.o.o.o.o.",
"o.o.o.o.+.O.e   4 R R R J 2 < < 1 H R R T R R R R F < < < < < < < < < > h P N u f J L R R R U i > < < o   w +.o.o.o.o.o.",
"o.o.o.o.o.+.e   4 R R R J 1 < < 1 H R R R R R T R F < < < < < < < < < > < < g R D 2 i I R R Y i < < < o   w o.o.o.o.o.o.",
"o.o.o.o.o.+.e   4 R R R P 1 < < 2 H R R R R R R R F < < < < < < < < < < y i j G S i g Y R R Y i < < < o   w O.o.o.o.o.o.",
"o.o.o.o.o.+.e   4 R R R H 1 > < 1 H R T R R R R R G 1 < < < < < > < < > N T V > a Y T R R R Y i < < < o   w +.o.o.O.o.o.",
"o.o.o.o.O.+.e   4 R R R P 1 < < 2 H R R R R T R R G < < < < < < < < < > f F N a h D G Y R R U i > < < o   w O.o.o.o.o.o.",
"o.o.o.o.O.+.e   4 R R R G 1 > < 1 H R R R R R R R G < < < < < < < < < < > < f R G 1 u I R R Y i < < < o   w O.o.o.o.o.o.",
"O.o.o.o.O.+.e   4 R R R P 2 < < 1 H R R R R R R R F < < > < < < > < < < u h n A l g l U R R Y i < < < o   w O.O.o.o.o.o.",
"o.o.O.O.O.+.e   4 R R R P 2 > < 1 H R R R R R R R F < < < < < > < < < > Z ! A > a R R R R R Y i < < < o   w O.O.o.o.o.o.",
"o.o.o.o.O.+.e   4 R R R F 1 > > 1 H R R R R R R R F 1 < < < < < < > < > p N N h k k S Y R R Y i > < < o   w O.o.o.O.O.O.",
"o.o.o.o.O.+.e   4 R R R P > > > 1 H R R R R R R R F < > < < < < < < < < > > g R F > u I R R Y i > < < o   w O.o.o.o.o.o.",
"o.o.o.o.O.O.e   4 R R R P 2 > < 1 H R R R R R R R F 1 < < < < < < < < > a N l h j A D T R R T i < < < o   w O.o.o.o.o.o.",
"o.o.o.o.O.+.e   4 R Y I P 2 > < 1 H R R R R R R R F < < < < < < < < < > N R A > a Y R R T R Y i < < < o   w O.o.o.o.o.o.",
"o.o.o.o.o.+.e   4 R R R J 2 > < 2 H R R R R R R R F < < < > > < < > < > u f j S A f j R R R U i > > < o   w +.O.o.o.o.o.",
"o.O.o.o.o.+.e   4 R R R J 2 > < 1 H R R R R R R R F 1 < < < < < < < < < < < f R F 1 y L R R T i > < < o   w O.O.o.o.o.o.",
"o.o.o.o.O.O.e   4 R R R J 2 < < 1 H R R R R R R R F 1 < < < < < < < > > f G A p f G H R R R U i > < < o   w +.O.o.o.o.o.",
"o.o.o.o.+.O.e   4 R R R J 2 < < 1 H R R R R R R R F < < < < < < < < < > N T A < a Y U R R R U i > > < o   w O.o.o.o.o.o.",
"o.o.o.o.o.O.e   4 R R R J 2 > < 2 H R R R R R R R F < < < < < < < < > < 2 u h K S i f R R R U i < < < o   w O.o.o.o.o.o.",
"o.o.o.o.o.O.e   6 R R R J 2 < > 1 H R R R T T R R F < < < > < < < < < > 1 2 h Y F 2 i L R R T i > < < o   w O.o.o.o.o.o.",
"o.o.o.o.+.O.e   4 T T R J 1 > > 1 H T T T T T T T G < > > > > > > > > > h L N t f K L R T T U i > < < o   w +.o.o.o.o.o.",
"o.o.o.o.o.O./ @ v ~ ~ ^ Q c z z c Q ~ ~ ~ ~ ~ ~ ~ W x x x x z 8 x z z z E ^ E 8 C ^ ! ! ! ! ! m z z c 7 @ r o.o.o.o.o.o.",
"o.o.o.o.o.o. .] | X.X.X...{ [ { { ......X.X.X.X.X...[ [ [ [ { { [ [ [ [ { X...[ { X.X.X.X.X.X.{ [ [ [ ] '  .o.o.o.o.o.o.",
"o.o.o.o.o.o.o.O.O.O.O.O.O.O.O.O.O.O.O.O.O.O.O.O.O.O.+.+.O.+.O.O.O.O.+.+.O.O.O.O.+.O.O.O.O.O.O.O.O.+.+.+.+.o.o.o.o.o.o.o.",
"o.o.o.o.o.o.o.+.o.O.o.o.o.o.o.o.o.o.O.O.o.o.O.o.o.o.o.o.o.o.o.o.o.o.O.O.o.o.o.o.o.o.o.o.o.O.o.o.o.o.o.o.o.o.o.o.o.o.o.o.",
"o.o.o.o.o.o.o.o.o.o.o.o.o.o.o.o.o.O.O.O.o.o.o.o.o.o.o.o.o.o.o.o.o.o.o.O.O.o.o.o.o.o.o.o.o.o.o.o.o.o.o.o.o.o.o.o.o.o.o.o."
};
