/* XPM */
static char *wall1647209763[] = {
/* columns rows colors chars-per-pixel */
"60 60 219 2 ",
"   c #3C0200",
".  c #3E0900",
"X  c #370000",
"o  c #3D1000",
"O  c #440100",
"+  c #4B0200",
"@  c #430B00",
"#  c #4C0A00",
"$  c #530400",
"%  c #590600",
"&  c #540B00",
"*  c #5A0B00",
"=  c #441300",
"-  c #4C1200",
";  c #4E1A02",
":  c #461D0A",
">  c #541300",
",  c #5B1300",
"<  c #541B01",
"1  c #5C1B00",
"2  c #521F0A",
"3  c #610D00",
"4  c #6A0F00",
"5  c #631400",
"6  c #6A1400",
"7  c #631C00",
"8  c #6B1B00",
"9  c #721500",
"0  c #741C00",
"q  c #7A1C00",
"w  c #4D210C",
"e  c #44210E",
"r  c #5C2105",
"t  c #52240D",
"y  c #5D250B",
"u  c #562006",
"i  c #452414",
"p  c #4D2613",
"a  c #4D2816",
"s  c #422619",
"d  c #4D2B19",
"f  c #452A1C",
"g  c #522511",
"h  c #5A2611",
"j  c #542A15",
"k  c #5D2B14",
"l  c #512B18",
"z  c #5D321E",
"x  c #652203",
"c  c #6B2403",
"v  c #6D2806",
"b  c #632509",
"n  c #642A0E",
"m  c #6C2A0B",
"M  c #6B2609",
"N  c #742401",
"B  c #7C2300",
"V  c #732905",
"C  c #7D2A02",
"Z  c #722C0B",
"A  c #792E0C",
"S  c #76310E",
"D  c #7B310D",
"F  c #632C13",
"G  c #6C2E12",
"H  c #612F18",
"J  c #66331C",
"K  c #6C341A",
"L  c #683016",
"P  c #753314",
"I  c #7B3412",
"U  c #71361A",
"Y  c #72391E",
"T  c #7D3B1A",
"R  c #7D3818",
"E  c #6B3A24",
"W  c #743D23",
"Q  c #7A4126",
"!  c #72412A",
"~  c #7B452A",
"^  c #7E482E",
"/  c #6A4C3C",
"(  c #7A4831",
")  c #7E513A",
"_  c #6B4E40",
"`  c #822300",
"'  c #892600",
"]  c #842900",
"[  c #8A2B00",
"{  c #922F00",
"}  c #8D3104",
"|  c #82340E",
" . c #933302",
".. c #9B3B0B",
"X. c #93370A",
"o. c #843A15",
"O. c #833D1A",
"+. c #8A3E1B",
"@. c #8B3D16",
"#. c #9E3F11",
"$. c #A43E0B",
"%. c #A43C07",
"&. c #84411E",
"*. c #8B411D",
"=. c #9C4113",
"-. c #94441D",
";. c #A2400E",
":. c #AD430D",
">. c #B3450D",
",. c #B5480F",
"<. c #A54413",
"1. c #AB4612",
"2. c #AE4916",
"3. c #AD4B1A",
"4. c #A3491B",
"5. c #B34A14",
"6. c #BC4D15",
"7. c #B34E1B",
"8. c #BA4F19",
"9. c #B5511D",
"0. c #BD531C",
"q. c #BD5017",
"w. c #864323",
"e. c #8B4422",
"r. c #8D4827",
"t. c #82492D",
"y. c #8D4C2C",
"u. c #8C4728",
"i. c #924622",
"p. c #934925",
"a. c #9A4C26",
"s. c #944D2B",
"d. c #9A4E2A",
"f. c #95512F",
"g. c #9D512C",
"h. c #844D33",
"j. c #8B4E31",
"k. c #8B5134",
"l. c #8C5339",
"z. c #875137",
"x. c #945334",
"c. c #9B5432",
"v. c #95593D",
"b. c #9C593B",
"n. c #9E5838",
"m. c #AB4F22",
"M. c #A44D23",
"N. c #AE5325",
"B. c #A3532D",
"V. c #AB562B",
"C. c #B45323",
"Z. c #BA5623",
"A. c #BC5926",
"S. c #B35728",
"D. c #B55B2E",
"F. c #BC5C2C",
"G. c #A35632",
"H. c #A85630",
"J. c #A55934",
"K. c #AD5B33",
"L. c #A35D3C",
"P. c #A85E3B",
"I. c #B35C32",
"U. c #BA5E31",
"Y. c #B05E38",
"T. c #AC613D",
"R. c #A8603C",
"E. c #B66035",
"W. c #BC6234",
"Q. c #B3633C",
"!. c #BA653A",
"~. c #BF683C",
"^. c #C2551C",
"/. c #C04F17",
"(. c #C15721",
"). c #C25924",
"_. c #C25D2B",
"`. c #C3602E",
"'. c #C36333",
"]. c #C26639",
"[. c #C36C3E",
"{. c #9E5E41",
"}. c #955F45",
"|. c #8C5840",
" X c #A05F41",
".X c #9B644A",
"XX c #996952",
"oX c #A56344",
"OX c #AB6443",
"+X c #AD6846",
"@X c #A96849",
"#X c #B26642",
"$X c #B56944",
"%X c #BB6A42",
"&X c #B36C49",
"*X c #BB6B44",
"=X c #BC734C",
"-X c #BF7147",
";X c #A46F55",
":X c #AA6E52",
">X c #AA7155",
",X c #AB7459",
"<X c #BC7C5C",
"1X c #B57758",
"2X c #BA7D60",
"3X c #C56E41",
"4X c #C47044",
"5X c #C1734B",
"6X c #C47A54",
"7X c #C37A57",
"8X c #C4896B",
"9X c #FFEFE4",
"0X c #FFF2E4",
"qX c #FFF3EB",
"wX c #F6F6F6",
"eX c #FDF5F1",
"rX c #F6F8F6",
"tX c #F6F6F8",
"yX c #F7F9F8",
/* pixels */
"rXrXrXrXwXwXwXwXrXrXrXtXrXwXrXrXwXrXrXwXrXrXwXrXrXwXwXwXwXwXwXwXwXwXwXwXwXwXrXrXrXwXwXwXrXwXwXwXwXwXrXwXwXwXwXwXtXtXwXwX",
"rXeXqX0X9X9X9X0XqX0X9X0X0X9XqXqX0X9X9X9X9X0XqXqX9X9X0X0XqXqX0X0X0X0X0X0XqX0X0X0X0X0XqX0X0XqX0X0X0X0XqX0X0X0X0X0XqXeXwXwX",
"wXqX8X%X4X[.[.5XY .X5X3X[.-X1XU T.5X[.3X3X=XK @X5X[.[.-X,XU Q.4X3X3X4X*XK :X-X[.3X-X:XU *X4X3X3X4X$XU >X-X[.[.-X.X_ qXtX",
"wX9X=X3.9.9.9.S.& w.D.8.7.N.J.& =.Z.7.9.9.V.# i.S.8.8.N.J.& =.A.9.9.9.m.# s.S.7.9.C.c.# 4.C.9.9.0.4.# f.S.8.9.S.u.i qXrX",
"wXqX.XI &.&.o.O.@ F w.o.o.T Q . Z O.O.O.o.o.  K O.o.O.T W   P o.O.O.o.o.. K O.o.o.O.W   R o.O.O.o.I   W T o.*.T J s eXrX",
"wXqXY & #   , , > > > #   > > , , , @   , * , > 1 + O , > 1 , , O O , > > > , O @ , > > * ,   O , , , & 1 O + 1 # E qXrX",
"wX0X5XD.+., _.^.(.0.F.X.6 W.Z.0.^._.| 7 `.^.^.Z.U.[ 0 W.Z.^.^.`.V c _.^.^.Z.W.] q W.Z.0.^.`.N V `.^.^.Z.W.0 ] W.7.=X9XwX",
"wX0X5XS.o., ).6.0.9.A.} 5 E.9.0.6.F.I 5 _.6.0.C.F.] 8 F.9.0./.).V 8 ).^.q.9.F.B q U.9.0./.).c V _.6.0.C.F.0 C F.7.&X9XwX",
"wXqXY # @   * * # > > + O > & & * * O   , & # & , + O > & & & > O   * * & - & + O > > # * & O O > * & & * O + > @ E qXwX",
"wXqX.XR w.*.+.e.. J e.+.*.w.~ . P e.e.e.+.w.. K w.*.*.&.Q . R e.*.e.*.O.  W e.e.e.w.W . T +.e.e.*.o.  Q &.e.*.w.E i qXwX",
"rX0X8XC.U.F._.!.> y.!._.F.W.+X& a.].U.F.U.U.> x.!.F.F.E.oX& V.W.F.F.F.I.> b.W.A.A.W.b.> K.U.U.F.`.H.>  XW.F.F.Q.x.d qXtX",
"rX0Xc.]  . .{ { + c X.{  .[ | $ B  .}  .{  .+ V }  . .} | + ]  .}  . .[ O A }  . .[ A + [  . .{ { ] + D }  .{ X.M : qXtX",
"rX0XW 3 &   4 4 6 5 6 & O 5 5 6 4 6 + O 6 6 6 5 6 $ + 5 5 5 4 6 O O 6 4 5 5 5 + + 5 5 6 4 6 O @ 6 6 6 5 5 + $ 5 & W qXwX",
"rXqX<XP.Q < #XK.K.K.OXT 1 @XJ.I.K.#XW u OXD.K.K.#XP 7 +XK.K.D.#XK h #XI.K.K.&XZ m +XK.I.I.#XF F #XK.K.K.+Xx Z +XJ.1X0XrX",
"rXqX,XL.W -  XH.H.G.L.R > oXn.H.H.OXE ; P.H.H.G.oXP 1 oXG.H.H.L.H y  XH.H.G.oXm b oXG.H.H.T.h k P.H.H.J.oXy m OXx.,XqXrX",
"wXqXU $ @ O * 3 $ & * $ O * & * % * O   3 * $ & * + O * * $ 3 * O O 3 * * $ * + + * & $ * * O O 3 * % & * O + > + J qXrX",
"rXqXT. .#.#.%.#.$ A <.%.$.#.-.$ [ ;.$.<.%...+ | <.$.$.#.-.+ X.$.<.;.%...+ o.#.$.$.#.+.+ ..;.;.$.:. .+ @...:.$.=.I w qXrX",
"rXqX7XF._.)._.!.> y.'.).).U.#X, M.`.A.A.).W.> c.W.).).U.T.& N._.).A.F.D.& J.`._._.`.L.& S.U.A._.F.V.* P.W.).).'.x.l qXrX",
"rXqX|.m I R D I   y I I I P U   b I I I D S   k I I I P K   Z I U R D Z X F P D | U K   Z I I U I Z   L P I I U h i eXrX",
"rXqX~ > #   7 5 5 1 1 & O 1 1 5 5 7 #   7 5 1 1 7 # O 1 1 7 5 5 +   7 5 7 1 1 @ @ 1 , 1 5 5 . O 7 5 1 1 7 O + 7 ; ! qXrX",
"wX0X6XD.&.1 _.^.(.A.U.X.6 Q.Z.(.^.'.I x `.^.0.A.'.[ 0 !.Z.(.^.'.A c `.^.Z.Z.U.] B W.Z.(.^.'.V Z `.^.0.A.W.N ] W.C.5X0XtX",
"wX9X-X7.o.* Z.6.q.9.Z.} 5 D.7.8.6.S.D , Z.6.q.9.A.] 6 D.3.9.6.A.V 7 Z.6.q.7.D.B 0 F.7.7.6.A.c c A.8.9.7.D.0 B F.4.&X9XtX",
"rXqXK + #   * & # # & + O & & # & & + O * * + # & + O & # + $ * O O * & # # & + + & # # & & O O * & # # & + + > O z qXrX",
"rXqXXX+.i.p.i.y.. K s.-.p.e.h.@ R r.r.p.i.e.. W r.p.p.r.t.. O.p.i.i.i.e.. Q u.i.i.u.^ . &.i.p.p.p.T . ^ i.i.i.y.E s qXtX",
"rX0X7XI.W.F.F.!.> j.!.F.F.I.OX> a.!.F.F.U.I.> x.!.A.F.I.oX# B.'.F.F.W.K.> b.Q.F.F.E.{.& K.W.U.D.W.V.> L.E.F.F.Q.x.d qXtX",
"tX0Xf.q ] [ [ ] + 7 ] [ [ ] A + q ] ] ] ' ] + c ] [ [ ] C + q ] ] [ ` ] O N ] [ [ ] V O B [ [ ] ] B + V ] [ [ ] 7 2 qXtX",
"rXqX&.5 & O 0 9 0 6 0 * O 8 6 0 9 8 & O 0 9 0 6 8 & + 8 6 0 9 0 + O 9 9 0 8 8 $ + 8 8 0 9 0 + + 0 9 0 6 6 $ $ 0 , Q qXrX",
"rXqX<XT.~ < #XD.I.K.Q.O.1 +XY.D.D.%XW r #XI.I.I.$XI x +XK.D.D.%XK y %XD.D.K.#XZ m &XK.D.D.$XF F $XD.D.K.&Xc P #XH.1X9XrX",
"wXqX>Xb.E - b.B.B.g.R.U > {.c.B.g.L.J ; L.B.B.c.L.m < oXc.B.B.L.k t R.B.B.c.{.b r {.g.B.B.L.h k L.B.B.g.b.1 m oXs.;XqXrX",
"wXqXU O + . & % + $ & + O & $ $ $ * O O % % + + & + O & + + % * O O & $ + + & + + & $ + % % O O & % + $ & O + & O k qXrX",
"wX0XQ.;.1.:.:.1.$ | 2.:.:.<.a.%  .2.<.1.:.<.$ o.1.:.:.<.-.$ ..:.1.1.:.;.$ -.<.:.1.1.-.$ #.$.1.1.:...$ -.<.:.:.4.o.t qXtX",
"rX0X7XA._.(.).'.> s.'.(.).F.Q., 4.'.).)._.F.* g.'.(.).F.Y.* N._.A.A.).D.& G.'.).(.F.P.& D._.).)._.C.* P.'.(.(.'.f.l qXtX",
"wXqXz.x Z S v Z   < Z V Z m G   7 Z m Z V Z X r Z V Z Z F   8 V m Z V v X y m Z Z v n X c Z Z Z V x   n Z V Z Z u i qXrX",
"wXqX^ 1 -   c 7 c x x > O x 1 x 8 c -   c 8 c x x # O x 7 c 7 c @ @ c 7 c 7 M + # x 7 c 7 x O @ c 8 c 1 x @ + b < ( qXrX",
"wX0X6XD.e., `.^.0.A.'.X.7 !.A.(.^.'.o.7 _.(.(.A.].] 0 !.A.).^.'.S c '.^.).A.!.] B !.A.(.^.'.v Z '.^.(.F.].N ] ].Z.=X9XrX",
"wX0X*X3.| * C.6.7.5.C.[ 3 V.2.8.,.C.A , C.,.5.5.C.] 6 S.2.6.,.Z.v 5 Z.,.5.2.C.q 0 S.5.7.6.Z.8 c Z.,.5.2.Z.6 B S.<.&X9XrX",
"wXqXU + # O & $ O # $ $ + # # + $ & + O $ & O # & + + & # O $ & @ + & $ + # & + + & # O & & + O & $ + # & + + &   l qXtX",
"wXqX;X*.d.d.a.x.@ W f.a.a.s.l.@ T d.d.d.d.s.@ Q f.a.a.s.h.@ w.d.d.p.d.r.. ( s.a.a.s.h.@ r.a.s.a.d.e.. h.y.a.d.x.! f qXrX",
"wX0X<XK.E.D.F.Q.; j.!.I.F.Y.@X> d.!.I.F.U.Q.> x.Q.F.D.Y.oX& B.W.D.D.W.K.- b.Q.D.F.Y.{.# K.I.U.I.U.G.> b.Q.D.U.Q.l.d qXrX",
"rX0Xs.0 C B ` B O 5 B ` ` N N + 9 B B B ` N O 7 B ] ` N c O 0 B B ] B q O 8 B ] ` B c O 0 ` ` B ` 0 O c B ] B B 1 w qXrX",
"wXqXr.8 > + B q B 0 q 3 + N 0 B q q & + B q B 0 B % $ N 0 q q q & + q q B 0 N $ $ B 0 B q q + # q q B 0 N $ % B 8 t.9XwX",
"wXqX<XT.t.< #XF.D.I.%XO.1 &XY.D.U.%XW r %XD.D.Y.%XI 7 &XI.D.U.*XK n %XD.F.Y.$XZ v &XY.F.F.%XF K %XU.F.Y.#Xc A &XK.1X9XwX",
"wXqX;Xx.E # n.a.g.g.b.P - v.s.g.d.b.J ; b.a.g.s.b.n < b.f.G.d.G.h 2 n.d.g.s.b.b 1 b.f.c.a.b.t h n.d.g.s.{.1 n b.y.;XqXwX",
"wXqXK + # O $ * O + & + + & & + $ $ O O & % O & $ + + & + + $ * @ O * $ + # & + + & + + % & O + * $ O & $ + + & O j qXwX",
"wX0X!.<.7.5.>.3.$ o.7.,.5.3.M.% X.7.7.7.5.3.$ *.7.5.5.2.d.$ #.5.5.7.5.<.$ -.3.5.5.2.a.$ <.5.7.2.5.#.% p.2.5.5.3.+.g qXtX",
"wX0X6XZ.).A.(.'.> p.'.^.).F.#X* 4._.Z.).).F.& d.'.Z.(.F.Y.& 7._.Z.).A.Z.& n.`.(.^.F.J.& D.).).)._.C.* K.F.(.).U.s.g qXtX",
"rXqXh.1 M c 8 c   < v c v x b   1 c M M c c   < c v v 7 y   7 c M c c x   1 c c v c r X 7 c M c c 7   r c v V M ; i qXtX",
"wXqXh.x < . m N m M m > O n M m c Z -   Z c m M m > + G M Z N V @ @ V c m m m # # G m m N Z @ @ Z c m v G + - m 1 ) qXtX",
"rX0X6XU.e.1 '.).).A.].X.8 %XF.).(.].o.7 ].(.).A.].[ 0 !.F.).(.].D c ].(.(.F.].] B [.F.A.^.'.Z Z ].(.).A.~.N ] [.S.1X0XrX",
"rX0X#X4.A * 8.$.1.4.7.` 3 M.<.1.:.7.V * 7.>.5.1.7.B 6 N.<.5.:.7.c 1 7.>.5.<.N.0 6 N.<.2.:.9.7 8 7.>.5.<.m.6 q m.=.+X0XrX",
"rXqXU + $ + % * O + & $ $ & # O $ * + + * & O + & $ $ & # O $ * + + * % O + & $ + & # O & & + + % $ O # & $ $ &   g qXrX",
"rXqX>Xi.c.B.d.c.= W n.M.g.c.v.@ w.c.g.B.g.f.@ ( f.g.B.f.l.@ e.c.g.B.d.s.@ h.c.d.B.c.h.@ s.g.g.g.g.s.@ h.c.d.B.c.( f qXtX",
"rXqX<XK.U.U.D.Q.> j.Q.I.D.Y.oX> a.Q.I.D.I.T.- x.Q.F.D.T.oX# B.E.D.I.I.K.- v.Q.D.I.Y.{.# J.U.D.I.E.B.> .XY.I.F.Q.z.d qXrX",
"rXqXw.6 0 0 0 0 O , 0 0 q 8 c O 5 0 0 0 q 9 O , 0 0 0 0 7 O 6 q 0 0 0 9 O 5 8 q q 8 7 O 6 0 0 0 0 6 O 7 8 q 0 0 > w qXrX",
"rX9Xs.q 1 + ` ` ` B ] 6 + C N ] ` [ > $ ] ` ] B ] 3 $ C B ] ' ] * & ] ` ] B ] * % ] ] ' ' ] # & ] ` ] B C % * ] 0 k.9XwX",
"rX0X<X#X~ 1 %XU.U.I.%X*.1 &XE.F.F.%XW y *XF.U.U.%XI c &XE.U.F.*XK n *XF.U.E.*XZ Z $XI.U.U.%XF K %XF.F.I.&Xv I &XK.1X0XwX",
"rXqXXXt.z . j.e.r.r.y.k = h.t.r.e.y.j = y.e.r.e.j.y - z.w.r.*.y.p : y.e.e.w.k.u ; k.w.e.e.j.: 2 j.e.r.e.h.< < h.w.}.qXtX",
"wXeX_ : f s a w w w p p i a p g t p s s p w t p a i i a p w t a s s a t t p a i i p p g t p s s g t t p a i a d : / eXtX",
"rXrXeXqXqXeXqXqXqXqXqXqXeXqXqXqXqXqXqXeX9XqXqXqXqXqXqXqXqXqXqXqXqXeXqXqXqXqXqXqXqXqXqXqXqXqXeXqXqXqXqXqXqXqXqXqXqXqXrXrX",
"wXrXtXtXrXwXrXrXrXwXrXrXwXwXwXwXrXrXrXrXwXrXrXrXrXrXwXtXrXrXtXtXtXrXrXrXwXrXrXrXrXrXwXwXtXrXrXrXrXtXwXrXtXwXwXwXwXrXwXrX"
};
