/* XPM */
static char *result[] = {
/* columns rows colors chars-per-pixel */
"60 60 197 2 ",
"   c #1C050B",
".  c #1E090F",
"X  c #1F0A10",
"o  c #20060A",
"O  c #21090E",
"+  c #220D13",
"@  c #241017",
"#  c #25131A",
"$  c #28131D",
"%  c #2A191F",
"&  c #2B1620",
"*  c #271821",
"=  c #291B24",
"-  c #2B1E28",
";  c #271D28",
":  c #301C29",
">  c #2C222B",
",  c #31222C",
"<  c #2E2631",
"1  c #2E2935",
"2  c #2F2C39",
"3  c #312431",
"4  c #302A36",
"5  c #312E3B",
"6  c #38293A",
"7  c #2F303E",
"8  c #32313E",
"9  c #3B323B",
"0  c #3B2D41",
"q  c #372F40",
"w  c #333443",
"e  c #3C3146",
"r  c #3A3649",
"t  c #353A4B",
"y  c #383C4D",
"u  c #393845",
"i  c #373F50",
"p  c #3A3F51",
"a  c #413B44",
"s  c #433F4A",
"d  c #453E57",
"f  c #374254",
"g  c #3A4255",
"h  c #3B465A",
"j  c #3C495D",
"k  c #3D4C62",
"l  c #3D5166",
"z  c #3F5369",
"x  c #44424D",
"c  c #48444E",
"v  c #4B4954",
"b  c #434A5B",
"n  c #454456",
"m  c #4E525F",
"M  c #51525E",
"N  c #494561",
"B  c #414D63",
"V  c #484B66",
"C  c #415066",
"Z  c #4C5564",
"A  c #43556C",
"S  c #42586E",
"D  c #4D5867",
"F  c #435B73",
"G  c #445F78",
"H  c #4A5E79",
"J  c #4C5972",
"K  c #545C7E",
"L  c #505473",
"P  c #5A606D",
"I  c #45637D",
"U  c #4A627D",
"Y  c #556272",
"T  c #5E6672",
"R  c #51627C",
"E  c #5E6977",
"W  c #656D79",
"Q  c #656C77",
"!  c #565D80",
"~  c #4B6581",
"^  c #476983",
"/  c #4A6A85",
"(  c #4C6E8A",
")  c #466781",
"_  c #556587",
"`  c #526D8D",
"'  c #536E84",
"]  c #4B718C",
"[  c #54718C",
"{  c #597286",
"}  c #4D7593",
"|  c #4E7997",
" . c #4E7C9B",
".. c #537494",
"X. c #5A7195",
"o. c #5B749A",
"O. c #537C9C",
"+. c #567999",
"@. c #657382",
"#. c #697684",
"$. c #6E7D8B",
"%. c #677989",
"&. c #637B91",
"*. c #597DA3",
"=. c #547FA0",
"-. c #71808F",
";. c #6C8295",
":. c #66849A",
">. c #718392",
",. c #768898",
"<. c #5383A4",
"1. c #5A85AA",
"2. c #558AAC",
"3. c #5B8AAE",
"4. c #5A84A7",
"5. c #568EB1",
"6. c #5B8DB2",
"7. c #5791B4",
"8. c #5A92B5",
"9. c #5B96BB",
"0. c #5C98BE",
"q. c #5796BC",
"w. c #6B8FAC",
"e. c #6089A6",
"r. c #6591AD",
"t. c #6D93AB",
"y. c #7C93A3",
"u. c #608CB4",
"i. c #6195BE",
"p. c #679BBA",
"a. c #7E9EB2",
"s. c #7CA3BD",
"d. c #5D9CC2",
"f. c #619EC5",
"g. c #629FC9",
"h. c #689FC0",
"j. c #5EA0C7",
"k. c #5EA3CA",
"l. c #61A4CC",
"z. c #6EABCD",
"x. c #63A5CB",
"c. c #74ACCB",
"v. c #78AAC6",
"b. c #62A7D0",
"n. c #62AAD3",
"m. c #6BAED4",
"M. c #64AFD9",
"N. c #75AFD0",
"B. c #65B2DD",
"V. c #6BB2DA",
"C. c #7EB5D3",
"Z. c #72B4D9",
"A. c #77B9DD",
"S. c #76B5D8",
"D. c #65B7E4",
"F. c #6CB8E2",
"G. c #72BAE2",
"H. c #7BBEE2",
"J. c #7EC1E4",
"K. c #839DAF",
"L. c #8AA4B5",
"P. c #83A3B8",
"I. c #8BAABE",
"U. c #86A5B8",
"Y. c #86ABC3",
"T. c #8AAFC6",
"R. c #90AEC0",
"E. c #82B0CB",
"W. c #92B3C5",
"Q. c #97BACD",
"!. c #99BCCF",
"~. c #95B7CA",
"^. c #81BDDD",
"/. c #8FBFD9",
"(. c #87BAD6",
"). c #9CC2D7",
"_. c #9BC5DB",
"`. c #93C5DF",
"'. c #A1C9DE",
"]. c #85C2E2",
"[. c #8DC5E2",
"{. c #8FCBEA",
"}. c #91C5E1",
"|. c #94C9E5",
" X c #9DCCE4",
".X c #97CDE9",
"XX c #9ED1EA",
"oX c #9ED5F0",
"OX c #A4CDE1",
"+X c #A6D1E6",
"@X c #A8D2E7",
"#X c #A5D3EB",
"$X c #AAD5EB",
"%X c #ADD8ED",
"&X c #AADDF5",
"*X c #A4D7F1",
"=X c None",
/* pixels */
"=X=X=X=X=X=X=X=X=X=X=X=X=X=X=X=X=X=X=X=X=X=X=X=X=X=X=X=X=X=X=X=X=X=X=X=X=X=X=X=X=X=X=X=X=X=X=X=X=X=X=X=X=X=X=X=X=X=X=X=X",
"=X=X=X=X=X=X=X=X=X=X=X=X=X=X=X=X=X=X=X=X=X=X=X=X=X=X=X=X=X=X=X=X=X=X=X=X=X=X=X=X=X=X=X=X=X=X=X=X=X=X=X=X=X=X=X=X=X=X=X=X",
"=X=X=X=X=X=X=X=X=X=X=X=X=X=X=X=X=X=X=X=X=X=X=X=X=X=X=X=X=X=X=X=X=X=X=X=X=X=X=X=X=X=X=X=X=X=X=X=X=X=X=X=X=X=X=X=X=X=X=X=X",
"=X=X=X=X=X=X=X=X=X=X=X=X=X=X=X=X=X=X=X=X=X=X=X=X=X=X=X=X=X=X=X=X=X=X=X=X=X=X=X=X=X=X=X=X=X=X=X=X=X=X=X=X=X=X=X=X=X=X=X=X",
"=X=X=X=X=X=X=X=X=X=X=X=X=X=X=X=X=X=X=X=X=X=X=X=X=X=X=X+ + =X=X=X=X=X=X=X=X=X=X=X=X=X=X=X=X=X=X=X=X=X=X=X=X=X=X=X=X=X=X=X",
"=X=X=X=X=X=X=X=X=X=X=X=X=X=X=X=X=X=X=X=X=X=X=X=X=X=X* * * * =X=X=X=X=X=X=X=X=X=X=X=X=X=X=X=X=X=X=X=X=X=X=X=X=X=X=X=X=X=X",
"=X=X=X=X=X=X=X=X=X=X=X=X=X=X=X=X=X=X=X=X=X=X=X=X=X=X7 w w 7 1 =X=X=X=X=X=X=X=X=X=X=X=X=X=X=X=X=X=X=X=X=X=X=X=X=X=X=X=X=X",
"=X=X=X=X=X=X=X=X=X=X=X=X=X=X=X=X=X=X=X=X=X=X=X=X# 8 j z z j t *   =X  =X=X=X=X=X=X=X=X=X=X=X=X=X=X=X=X=X=X=X=X=X=X=X=X=X",
"=X=X=X=X=X=X=X=X=X=X=X=X=X=X=X=X=X=X=X=X=X=X=XX = t z  . .I h > + O O O + =X=X=X=X=X=X=X=X=X=X=X=X=X=X=X=X=X=X=X=X=X=X=X",
"=X=X=X=X=X=X=X=X=X=X=X=X=X=X=X=X=X=X=X=X=X=X# * 1 j ] 7.q. .z 8 > % > > > > =X=X=X=X=X=X=X=X=X=X=X=X=X=X=X=X=X=X=X=X=X=X",
"=X=X=X=X=X=X=X=X=X=X=X=X=X=X=X=X=X=X=X=X=X=X7 t h z <.d.x.5.' Z v g f f w 7 =X=X=X=X=X=X=X=X=X=X=X=X=X=X=X=X=X=X=X=X=X=X",
"=X=X=X=X=X=X=X=X=X=X=X=X=X=X=X=X=X=X=X=X= 8 j z ^ <.q.k.x.p.t.;.%.{ E U z h 1 # =X=X=X=X=X=X=X=X=X=X=X=X=X=X=X=X=X=X=X=X",
"=X=X=X=X=X=X=X=X=X=X=X=X=X=X=X=X=X=X=X@ * w z | 5.d.k.k.m.N.E.W.Y.s.p.8.} z 7 * + =X=X=X=X=X=X=X=X=X=X=X=X=X=X=X=X=X=X=X",
"=X=X=X=X=X=X=X=X=X=X=X=X=X=X=X=X=X=X=X+ * w F <.k.M.B.M.Z.A.`._. X].A.x.2.I h 2 > =X=X=X=X=X=X=X=X=X=X=X=X=X=X=X=X=X=X=X",
"=X=X=X=X=X=X=X=X=X=X=X=X=X=X=X=X=X=X  O % w z 2.n.V.A.A.A.}.XX#XXX{.J.n.q.| z k t 5 =X=X=X=X=X=X=X=X=X=X=X=X=X=X=X=X=X=X",
"=X=X=X=X=X=X=X=X=X=X=X=X=X=X=X=XO O o O # 7 G 2.n.G.J.[.`. X#X#XXX{.G.n.k.7.<.] F f > + =X=X=X=X=X=X=X=X=X=X=X=X=X=X=X=X",
"=X=X=X=X=X=X=X=X=X=X=X=X=X=X=X# % # @ @ > w G 2.x.A.].`.XX@X@X+X X[.A.m.n.k.j.7.] k 2 % @ =X=X=X=X=X=X=X=X=X=X=X=X=X=X=X",
"=X=X=X=X=X=X=X=X=X=X=X=X=X=X=X1 2 1 1 1 7 j ] 8.Z.].|.XX@X$X$X+X X[.^.Z.V.B.B.k.2.I f 2 < =X=X=X=X=X=X=X=X=X=X=X=X=X=X=X",
"=X=X=X=X=X=X=X=X=X=X=X=X=X=X7 f l l l l z ' 4.v.].{.XX#X%X%X%X$X#X X|.].J.J.D.M.q. .I l f 7 =X=X=X=X=X=X=X=X=X=X=X=X=X=X",
"=X=X=X=X=X=X=X=X=X=X=X=X. > t I ]  . .<.<.3.s.(.`.XX#X%X$X%X%X%X#X#XXXXX[.J.G.B.k.7.2.] F f < @ =X=X=X=X=X=X=X=X=X=X=X=X",
"=X=X=X=X=X=X=X=X=X=X=X# = 4 b ] 7.j.k.k.j.x.C.`._.'.'.'.'.'.'.'.'.'.'._.`.C.m.l.k.k.k.7.] h < @ O =X=X=X=X=X=X=X=X=X=X=X",
"=X=X=X=X=X=X=X=X=X=X=X9 u b R <.j.B.B.B.B.m.c.s.L.L.L.L.L.L.L.L.L.L.L.L.a.t.r.3.0.k.k.j.} h < # O =X=X=X=X=X=X=X=X=X=X=X",
"=X=X=X=X=X=X=X=X=X> a M T @.:.p.k.B.D.D.B.z.r.;.W W Q Q W W Q Q W W W W T Y J I  .q.n.j.<.k < @ O =X=X=X=X=X=X=X=X=X=X=X",
"=X=X=X=X=X=X=X=X+ , c W y.U.v.N.n.B.B.B.n.9.[ D x x a a a a a a a a a a u 8 w t z <.j.0.} h < @ O =X=X=X=X=X=X=X=X=X=X=X",
"=X=X=X=X=X=X=X=X+ , v $.I.).|.A.Z.n.n.b.d.=.G i < > > > > < < < < > < < > - - 4 h ] 2.2.] h > # O =X=X=X=X=X=X=X=X=X=X=X",
"=X=X=X=X=X=X=X  + > v -.~.#X*X{.A.c.x.5.=.^ l i 8 2 8 w t t t t t t t t t 2 5 w h G ] ] z t > @ + =X=X=X=X=X=X=X=X=X=X=X",
"=X=X=X=X=X=X=X  + , v >.~.%X&XXX`.v.r.' S k k h k l S I I I I I ) ) ) I G z l k k l l h t 1 ; # + =X=X=X=X=X=X=X=X=X=X=X",
"=X=X=X=X=X=X=X  + > v $.W.+X&X*X XT.;.D t w g F ' | <.2.7.7.7.7.5.7.5.5.2.=.../ S h t 1 > * $ # @ =X=X=X=X=X=X=X=X=X=X=X",
"=X=X=X=X=X=X=X=X+ , c #.K.Q.'.+XOXW.>.Z 8 w k / <.8.j.k.n.n.n.n.b.n.n.b.g.d.5.*.~ j 8 > = $ $ # @ =X=X=X=X=X=X=X=X=X=X=X",
"=X=X=X=X=X=X=X=X=X, s P $.K.I.'.OX!.y.Y n h G O.8.j.n.n.B.B.B.D.D.B.B.M.n.l.f.5.+.I h w < = * @ @ =X=X=X=X=X=X=X=X=X=X=X",
"=X=X=X=X=X=X=X=X=X=X9 x M Q >.R.'._.P.&.U U } 5.g.b.M.B.B.B.B.B.D.B.B.M.n.n.l.d.5.+.~ C y 4 = $ @ =X=X=X=X=X=X=X=X=X=X=X",
"=X=X=X=X=X=X=X=X=X=X=X- , a Q y.Q.!.Y.w.o.O.2.0.l.b.n.n.n.n.n.n.n.n.n.n.n.n.b.g.0.3.O.~ B w - @ + =X=X=X=X=X=X=X=X=X=X=X",
"=X=X=X=X=X=X=X=X=X=X=X. @ , v %.K.Y.a.w.*.1.6.i.f.g.g.f.d.d.d.q.q.d.k.n.b.b.g.f.6.*...~ k q ; # + =X=X=X=X=X=X=X=X=X=X=X",
"=X=X=X=X=X=X=X=X=X=X=X  X * 9 M @.$.e.e.*.e.2.6.6.u.u.6.*.=.] ( } =.d.k.g.f.f.1.*.` H k t 3 = # @ =X=X=X=X=X=X=X=X=X=X=X",
"=X=X=X=X=X=X=X=X=X=X=X+ @ % , 9 c Z R ` *.*.*.o.o.o.o.o.` ! k k z ] 5.d.g.f.1.X.~ V p q < ; * @ @ =X=X=X=X=X=X=X=X=X=X=X",
"=X=X=X=X=X=X=X=X=X=X=X# @ # % % - 5 B ~ +.o.X._ K K ! K L d 0 3 t z <.d.g.u.X.H N r 3 ; * @ * # @ =X=X=X=X=X=X=X=X=X=X=X",
"=X=X=X=X=X=X=X=X=X=X=X=X# # + + @ < p G ..X._ L N N N N d 0 : $ 1 l  .d.d.=.! N e 3 = @ + @ @ # % =X=X=X=X=X=X=X=X=X=X=X",
"=X=X=X=X=X=X=X=X=X=X=X=X=X@ + . @ ; p ~ | ..H n 0 a 0 0 6 : $ @ < k  .d.9.} V 0 3 & @ X + + # # @ =X=X=X=X=X=X=X=X=X=X=X",
"=X=X=X=X=X=X=X=X=X=X=X=X=X=XO + @ < p ~ ..` A r : : : : : $ @ # 1 z <.d.5./ p < & $ @ @ @ @ # # % =X=X=X=X=X=X=X=X=X=X=X",
"=X=X=X=X=X=X=X=X=X=X=X=X=X=X=X+ $ < p G ( ~ B w 3 : ; ; ; ; & > t z 2.d.5./ g 1 = & = = * $ # # @ =X=X=X=X=X=X=X=X=X=X=X",
"=X=X=X=X=X=X=X=X=X=X=X=X=X=X=X=X$ < t B S A b i w w t y t y t p z ] 7.j.9. .z f r w r 5 < - * # @ =X=X=X=X=X=X=X=X=X=X=X",
"=X=X=X=X=X=X=X=X=X=X=X=X=X=X=X=X=X> 5 t p g j B C F G I ^ ^ ^ / | 2.d.n.j.7. ./ I G S B y 1 = @ + =X=X=X=X=X=X=X=X=X=X=X",
"=X=X=X=X=X=X=X=X=X=X=X=X=X=X=X=X=X=X- > 4 r h G ( +.<.5.7.q.8.8.q.d.k.n.n.j.d.5.2.*...~ k 5 - # + =X=X=X=X=X=X=X=X=X=X=X",
"=X=X=X=X=X=X=X=X=X=X=X=X=X=X=X=X=X=X=X@ * 4 g J ` <.8.d.j.n.b.b.k.k.d.d.d.j.d.g.9.2.| ~ B r - # + =X=X=X=X=X=X=X=X=X=X=X",
"=X=X=X=X=X=X=X=X=X=X=X=X=X=X=X=X=X=X=X=X@ < r B G ` <.0.l.n.B.B.n.q.<.| O.2.d.d.5.O.~ S g w - @ =X=X=X=X=X=X=X=X=X=X=X=X",
"=X=X=X=X=X=X=X=X=X=X=X=X=X=X=X=X=X=X=X=X=X- 1 w g S ( 1.f.b.B.M.k.<.I z S ( <.6.=.H k t q < =X=X=X=X=X=X=X=X=X=X=X=X=X=X",
"=X=X=X=X=X=X=X=X=X=X=X=X=X=X=X=X=X=X=X=X=X=X* - < y A ` 1.0.l.l.7.] j w r A ( ..~ B q > = =X=X=X=X=X=X=X=X=X=X=X=X=X=X=X",
"=X=X=X=X=X=X=X=X=X=X=X=X=X=X=X=X=X=X=X=X=X=X=X+ = 5 j H ` O.2.2.<.G t > 4 p G ~ S p < # + =X=X=X=X=X=X=X=X=X=X=X=X=X=X=X",
"=X=X=X=X=X=X=X=X=X=X=X=X=X=X=X=X=X=X=X=X=X=X=X=X$ < t h C F I I z l 8 * > w h j g w = + =X=X=X=X=X=X=X=X=X=X=X=X=X=X=X=X",
"=X=X=X=X=X=X=X=X=X=X=X=X=X=X=X=X=X=X=X=X=X=X=X=X=X> 4 5 w u t y f w =X=X=X< 5 5 5 4 =X=X=X=X=X=X=X=X=X=X=X=X=X=X=X=X=X=X",
"=X=X=X=X=X=X=X=X=X=X=X=X=X=X=X=X=X=X=X=X=X=X=X=X=X=X* = = - - - = > =X=X=X= = = = =X=X=X=X=X=X=X=X=X=X=X=X=X=X=X=X=X=X=X",
"=X=X=X=X=X=X=X=X=X=X=X=X=X=X=X=X=X=X=X=X=X=X=X=X=X=X=X@ + + + + + =X=X=X=X=X@ + @ =X=X=X=X=X=X=X=X=X=X=X=X=X=X=X=X=X=X=X",
"=X=X=X=X=X=X=X=X=X=X=X=X=X=X=X=X=X=X=X=X=X=X=X=X=X=X=X=X=XO O =X=X=X=X=X=X=X=X=X=X=X=X=X=X=X=X=X=X=X=X=X=X=X=X=X=X=X=X=X",
"=X=X=X=X=X=X=X=X=X=X=X=X=X=X=X=X=X=X=X=X=X=X=X=X=X=X=X=X=X=X=X=X=X=X=X=X=X=X=X=X=X=X=X=X=X=X=X=X=X=X=X=X=X=X=X=X=X=X=X=X",
"=X=X=X=X=X=X=X=X=X=X=X=X=X=X=X=X=X=X=X=X=X=X=X=X=X=X=X=X=X=X=X=X=X=X=X=X=X=X=X=X=X=X=X=X=X=X=X=X=X=X=X=X=X=X=X=X=X=X=X=X",
"=X=X=X=X=X=X=X=X=X=X=X=X=X=X=X=X=X=X=X=X=X=X=X=X=X=X=X=X=X=X=X=X=X=X=X=X=X=X=X=X=X=X=X=X=X=X=X=X=X=X=X=X=X=X=X=X=X=X=X=X",
"=X=X=X=X=X=X=X=X=X=X=X=X=X=X=X=X=X=X=X=X=X=X=X=X=X=X=X=X=X=X=X=X=X=X=X=X=X=X=X=X=X=X=X=X=X=X=X=X=X=X=X=X=X=X=X=X=X=X=X=X",
"=X=X=X=X=X=X=X=X=X=X=X=X=X=X=X=X=X=X=X=X=X=X=X=X=X=X=X=X=X=X=X=X=X=X=X=X=X=X=X=X=X=X=X=X=X=X=X=X=X=X=X=X=X=X=X=X=X=X=X=X",
"=X=X=X=X=X=X=X=X=X=X=X=X=X=X=X=X=X=X=X=X=X=X=X=X=X=X=X=X=X=X=X=X=X=X=X=X=X=X=X=X=X=X=X=X=X=X=X=X=X=X=X=X=X=X=X=X=X=X=X=X",
"=X=X=X=X=X=X=X=X=X=X=X=X=X=X=X=X=X=X=X=X=X=X=X=X=X=X=X=X=X=X=X=X=X=X=X=X=X=X=X=X=X=X=X=X=X=X=X=X=X=X=X=X=X=X=X=X=X=X=X=X"
};
