/* XPM */
static char *_647289524624[] = {
/* columns rows colors chars-per-pixel */
"69 60 194 2 ",
"   c black",
".  c #6074ED",
"X  c #212852",
"o  c #11152A",
"O  c #6074EE",
"+  c #6175F0",
"@  c #5C6FE4",
"#  c #5B6EE1",
"$  c white",
"%  c #6276F2",
"&  c #5668D4",
"*  c #0E1123",
"=  c #5C6FE3",
"-  c #282828",
";  c #141831",
":  c #05060C",
">  c #010204",
",  c #5B6FE2",
"<  c #6C6C6C",
"1  c #3A468F",
"2  c #596CDD",
"3  c #354082",
"4  c #6276F1",
"5  c #5F72EA",
"6  c #262E5F",
"7  c #1E244A",
"8  c #4756B0",
"9  c #ACACAC",
"0  c gray94",
"q  c gray11",
"w  c #3D4A97",
"e  c #010101",
"r  c #5B6EE0",
"t  c #5B6EE2",
"y  c #6175F1",
"u  c #040404",
"i  c #5D70E6",
"p  c gray6",
"a  c #6073EC",
"s  c #6176F1",
"d  c #5D70E5",
"f  c #5A6DE0",
"g  c #5D5D5D",
"h  c #FBFBFB",
"j  c gray78",
"k  c gray19",
"l  c gray89",
"z  c #5567D3",
"x  c #939393",
"c  c gray29",
"v  c #6277F3",
"b  c #5E71E8",
"n  c gray81",
"m  c #1A1F40",
"M  c #808080",
"N  c #101010",
"B  c #4A59B7",
"V  c #5162C8",
"C  c #0F1124",
"Z  c #090B18",
"A  c #5A6DDE",
"S  c #6074EF",
"D  c #5F73EA",
"F  c #414EA0",
"G  c #5768D6",
"H  c #2B346B",
"J  c #101328",
"K  c #3F4C9C",
"L  c #1B2143",
"P  c gray13",
"I  c gray16",
"U  c #2A2A2A",
"Y  c #11152B",
"T  c gray86",
"R  c #505050",
"E  c #12162D",
"W  c gray84",
"Q  c #5E72E9",
"!  c #6075EE",
"~  c #586AD9",
"^  c #2E3771",
"/  c #3B4792",
"(  c #5E72EA",
")  c #374389",
"_  c #3D4A98",
"`  c #232A57",
"'  c #5F73EB",
"]  c #535353",
"[  c #677DFF",
"{  c #5F73ED",
"}  c #3D4996",
"|  c #687DFF",
" . c #1C2245",
".. c #898989",
"X. c #6D7EE4",
"o. c #5A6DDF",
"O. c #586BE0",
"+. c gray47",
"@. c gray15",
"#. c #1D2348",
"$. c #5C6FE2",
"%. c #657AFB",
"&. c #6277F2",
"*. c #1B1B1B",
"=. c #B4B4B4",
"-. c #5061C6",
";. c #5D71E7",
":. c #252525",
">. c #626262",
",. c #191F3E",
"<. c #69696B",
"1. c #343F82",
"2. c gray59",
"3. c #D5D5D5",
"4. c #424FA3",
"5. c #38448B",
"6. c #4756AF",
"7. c #414141",
"8. c #727272",
"9. c #4857B3",
"0. c #5264CC",
"q. c #323D7B",
"w. c #6E6D6B",
"e. c #1E254B",
"r. c #5465D0",
"t. c #202750",
"y. c #2A3369",
"u. c #374287",
"i. c #3B4791",
"p. c #697EFF",
"a. c #3C4895",
"s. c #404D9D",
"d. c gray99",
"f. c #F6F6F6",
"g. c gray9",
"h. c #FEFEFE",
"j. c #E1E1E1",
"k. c #7E7E7E",
"l. c #4959B6",
"z. c #0D1021",
"x. c #4D5DBE",
"c. c #A9A9A9",
"v. c gray37",
"b. c #7081EA",
"n. c #4756B5",
"m. c #171610",
"M. c #5364CD",
"N. c #5B6EE7",
"B. c #030307",
"V. c #5E6CBF",
"C. c #F3F3F3",
"Z. c #02030A",
"A. c #13141A",
"S. c #0E0E0C",
"D. c #181D3B",
"F. c #293164",
"G. c #161B37",
"H. c #6378F5",
"J. c gray83",
"K. c #4E4E4E",
"L. c #B2B2B2",
"P. c #2F3873",
"I. c #151A34",
"U. c #4553AA",
"Y. c #313B78",
"T. c gray34",
"R. c #CECECE",
"E. c #677CFD",
"W. c #2D3770",
"Q. c gray8",
"!. c #161616",
"~. c #EFEFEF",
"^. c gray20",
"/. c #2C2C2C",
"(. c #424E9B",
"). c #596BDD",
"_. c #596BDB",
"`. c #4A4A49",
"'. c #0A0901",
"]. c #D7D7D7",
"[. c gray12",
"{. c gray1",
"}. c gray69",
"|. c #313D84",
" X c #151B43",
".X c #DADADA",
"XX c #E4E4E4",
"oX c #B6B6B3",
"OX c #5A5E73",
"+X c #364185",
"@X c #252D5D",
"#X c #1E2349",
"$X c #293266",
"%X c #20264F",
/* pixels */
"                                                                                                                < $ $ $ $ $ $ $ $ -       ",
"                                                                                                                < $ $ $ $ $ $ $ $ -       ",
"                                                                                                                < $ $ $ $ $ $ $ $ -       ",
"                                                                                                                < $ $ $ $ $ $ $ $ P       ",
"                  C Y o o o o o o o o o o o o o o o o o o o o o o o o o o o E :                         :.k k @.8.T n R.3.$ $ $ $ R U k k ",
"                  & &.O O O O O O O O O O O O O O O O O O O O O O O O O O O [  .                        J.$ $ $ 2.      p $ $ $ h.$ $ $ $ ",
"                  V d # # # # # # # # # # # # # # # # # # # # # # # # # # # s m                         j $ $ $ x       q $ $ $ $ $ $ $ $ ",
"                  V d # # # # # # # # # # # # # # # # # # # # # # # # # # # s m                         j $ $ $ x       q $ $ $ $ $ $ $ $ ",
"                  V d # # # # # # # # # # # # # # # # # # # # # # # # # # # s ,.                        j $ $ $ x       q $ $ $ $ $ $ $ $ ",
"        z.o.& & z f # # # # # # # # # # # # # # # # # # # # # # # # # # # # t ~ z & f u.                j $ $ $ x       e N p p {..X$ $ $ ",
"        * + @ @ @ # # # # # # # # # # # # # # # # # # # # # # # # # # # # # # = @ @ y i.                j $ $ $ x                 W $ $ $ ",
"        * . # # # # # # # # # # # # # # # # # # # # # # # # # # # # # # # # # # # # O 1                 j $ $ $ x                 ].$ $ $ ",
"        * . # # # # # # f ' v % % O r # # # # # # f a &.% % % % % % 4 # # # # # # # S )                 W $ $ $ 2.                XX$ $ $ ",
"        * . # # # # # # a ) m 7 L H D # # # # # # a 1.m 7 7 7 7 7 #Xe.A , # # # # # d -./ w _ 1         7.T.] K.+.L.9 9 9 9 9 9 }.>.R ] ] ",
"        * . # # # # # # % `       J + # # # # # # v 7                 2 , # # # # # r d O . + r       e         <.$ $ $ $ $ $ $ $ [.      ",
"        * . # # # # # # 4 6       ; + # # # # # # % X               > 2 , # # # # # # # # # @ &                 < $ $ $ $ $ $ $ $ -       ",
"        C %.. . . . . . | @X      J + # # # a . . [ `               > Q ! . O @ r # # # # # @ &                 < $ $ $ $ $ $ $ $ U       ",
"        Z F w w w w w w s.H  .7 L H D # # t K } w 4.G.              > a._ w / 0.d # # # # # @ &                 < $ $ $ f.c.9 9 =.*.      ",
"                          +Xp.% % O r # # =                                   K { # # # # # @ &                 < $ $ $ j.          e     ",
"                          3 + # # # # # # = :                                 F a # # # # # @ &                 < $ $ $ l                 ",
"                          3 + # # t @ @ @ i Z.                                F S @ @ = # # @ &                 < $ $ $ l                 ",
"                          3 + # t A z & & & A.S.p N u                 p p p '.(.).& z ~ t # @ &                 < $ $ $ l                 ",
"                          3 + # 5 6.        C.$ $ $ v.              u $ $ $ $ `.      t.% # @ &                 < $ $ $ l                 ",
"                          3 + # 5 8         0 $ $ $ g               u h $ $ $ c       X % # @ &                 < $ $ $ l                 ",
"                          3 + # 5 8         0 $ $ $ g               u h $ $ $ c       X % # @ &                 < $ $ $ l                 ",
"                          3 + # 5 8         0 $ $ $ g               u h $ $ $ c       X % # @ &                 8.$ $ $ ~.                ",
"                          3 + # 5 8         0 $ $ $ g               u h $ $ $ c       X % # @ &                 Q.^.k /.7.J.n n .XP       ",
"                          3 + # 5 8         0 $ $ $ g               u h $ $ $ c       X % # @ &                         !.$ $ $ $ I       ",
"                          3 + # 5 8         0 $ $ $ g               u h $ $ $ c       X % # @ &                         q $ $ $ $ -       ",
"                          q.+ # 5 8         $ $ $ $ >.              u $ $ $ $ K.      X % # @ &                         q $ $ $ $ -       ",
"                  F.P.^ y.9.b # 5 8         +.M M ..k               e k.M M ..:.      X % # = _.W.^ ^ Y.Z               q $ $ $ $ -       ",
"                  G H.s % b r # 5 8                   e                         e     X % # # t s s s | I.              q $ $ $ $ -       ",
"                  V d # # # # # 5 8                                                   X % # # # # # # + ;               q $ $ $ $ -       ",
"                  V d # # # # # 5 8                                                   X % # # # # # # + Y               q $ $ $ $ I       ",
"        B.E o o C M.d # # # # # 5 8                                                   X % # # # # # # a X * o E Z       g.W n n .XP       ",
"        C %.O O + $.# # # # # # 5 8                                                   X % # # # # # # r ' + O E.5.                        ",
"        * . # # # # # # # # # # 5 8                                                   X % # # # # # # # # # # + 3                         ",
"        * . # # # # # # # # # # 5 8                                                   X % # # # # # # # # # # + 3                         ",
"        * . # # # # # # # # # # 5 6.                                                  t.% # # # # # # # @ @ @ v 1.                        ",
"        * . # # # # # # # # # # t A z & & G :       u.f & & & & & & r.>       w 2 & z ~ t # # # # # # ! D.> :   <.$ 0 0 0 0 0 0 d.@.      ",
"        * . # # # # # # # # # # # t @ @ @ i :       i.y @ @ @ @ @ d f >       4.S @ @ = # # # # # # # + E       w.$ $ $ $ $ $ $ $ -       ",
"        * . # # # # # # # # # # # # # # # = :       1 O # # # # # , 2 >       F a # # # # # # # # # # + ;       < $ $ $ $ $ $ $ $ -       ",
"        * . # # # # # # f ' v % % O r # # =         a.[ % % % % % v .         K { # r ;.v % % s # # # + ;       < $ $ $ $ $ $ $ $ -       ",
"        * . # # # # # # a ) m 7 L H D # # t K } w s.$X .7 7 7 7 7 #Xe.} _ w / 0.d # ( U.,.7 #.X $.# # + ;       < $ $ $ $ $ $ $ $ -       ",
"        * . # # # # # # % `       J + # # # a . . | %X                Q ! . O @ r # S 5.      e = # # + ;       < $ $ $ $ $ $ $ $ -       ",
"        * . # # # # # # 4 6       ; + # # # # # # % X               > 2 , # # # # # O 1       : = # # + ;       < $ $ $ $ $ $ $ $ -       ",
"        * . # # # # # # 4 6       ; + # # # # # # % X               > 2 , # # # # # O 1       : = # # + J       w.$ $ $ $ $ $ $ $ U       ",
"        * . # # # # # # 4 6       ; + # # # # # # % X               > 2 , # # # # # O 1       : = # # D H L 7  XOXoX9 9 9 9 9 9 =.*.      ",
"        * . # # # # # # 4 6       ; + # # # # # # % X               > 2 , # # # # # O 1       : = # # r O % % p.|.                  e     ",
"        * . # # # # # # 4 6       ; + # # # # # # % X               > 2 , # # # # # O 1       : = # # # # # # + 3                         ",
"        * . # # # # # # 4 6       ; + # # # # # # % X               > 2 , # # # # # O 1       : = # # # # # # + 3                         ",
"        * . # # # # # # 4 6       ; + # # # # # # % X               > 2 , # # # # # O 1       : = # # # # # # + 3       e N p p N e       ",
"        * . # # # # # # 4 6       ; + # # # # # # % X               > 2 , # # # # # O 1       : = # # # # # # + 3       q $ $ $ $ I       ",
"        * . # # # # # # 4 6       ; + # # # # # # % X               > 2 , # # # # # O 1       : = # # # # # # + 3       q $ $ $ $ -       ",
"        * . # # # # # # 4 6       ; + # # # # # # % X               > 2 , # # # # # O 1       : = # # # # # # + 3       q $ $ $ $ -       ",
"        Z O # # # # # # 4 6       ; + # # # # # # % X               > 2 , # # # # # O 1       : = # # # # # # + q.      m.$ $ $ $ -       ",
"B B B l.x.= # # # # # # 4 6       ; + # # # # # # % X               > 2 , # # # # # O 1       : = # # # # # # @ r.9.B n.V.$ $ $ $ -       ",
"b b b b ;.# # # # # # # 4 6       ; + # # # # # # % X               > 2 , # # # # # O 1       : = # # # # # # # @ b b N.b.$ $ $ $ -       ",
"# # # # # # # # # # # # 4 6       ; + # # # # # # % X               > 2 , # # # # # O 1       : = # # # # # # # # # # O.X.$ $ $ $ -       ",
"# # # # # # # # # # # # 4 6       ; + # # # # # # % X               > 2 , # # # # # O 1       : = # # # # # # # # # # O.X.$ $ $ $ -       "
};
