/* XPM */
static char *result[] = {
/* columns rows colors chars-per-pixel */
"60 60 188 2 ",
"   c #1D060C",
".  c #1F090F",
"X  c #1F0306",
"o  c #20060B",
"O  c #21090E",
"+  c #220D13",
"@  c #241017",
"#  c #25131B",
"$  c #29141D",
"%  c #271921",
"&  c #291B24",
"*  c #2B1F29",
"=  c #281A24",
"-  c #311F2D",
";  c #2C222C",
":  c #31222E",
">  c #2D2632",
",  c #2E2936",
"<  c #2F2D3A",
"1  c #322732",
"2  c #302A37",
"3  c #312D3B",
"4  c #382F38",
"5  c #32313F",
"6  c #3B323B",
"7  c #3B2D41",
"8  c #333342",
"9  c #3C3444",
"0  c #3E3348",
"q  c #353B4B",
"w  c #3A3C4C",
"e  c #3B3946",
"r  c #393F51",
"t  c #373F50",
"y  c #41374E",
"u  c #403E49",
"i  c #374254",
"p  c #3A4254",
"a  c #3B465A",
"s  c #3D495D",
"d  c #364458",
"f  c #3D4C61",
"g  c #3E5166",
"h  c #3E556B",
"j  c #3F5971",
"k  c #46434E",
"l  c #49454E",
"z  c #434653",
"x  c #494650",
"c  c #4A4A55",
"v  c #4B4D59",
"b  c #46475D",
"n  c #414D64",
"m  c #4D4C69",
"M  c #494964",
"N  c #485162",
"B  c #41546B",
"V  c #44536B",
"C  c #555B69",
"Z  c #465770",
"A  c #435C74",
"S  c #4A5C73",
"D  c #495E7A",
"F  c #485671",
"G  c #515979",
"H  c #59616E",
"J  c #476077",
"K  c #44627B",
"L  c #49627D",
"P  c #4D6276",
"I  c #546375",
"U  c #5E6572",
"Y  c #5F6978",
"T  c #606A77",
"R  c #545F81",
"E  c #466680",
"W  c #4B6682",
"Q  c #466883",
"!  c #4B6A86",
"~  c #4C6D8A",
"^  c #556485",
"/  c #586286",
"(  c #526D8D",
")  c #546B88",
"_  c #4B728E",
"`  c #51718A",
"'  c #5B7489",
"]  c #4D7492",
"[  c #4E7896",
"{  c #4E7B99",
"}  c #527595",
"|  c #547A95",
" . c #547698",
".. c #5A759A",
"X. c #537B9C",
"o. c #5A7B9D",
"O. c #587296",
"+. c #6D7987",
"@. c #667A8B",
"#. c #6D7B8A",
"$. c #707D8A",
"%. c #5D7AA1",
"&. c #51809F",
"*. c #59829E",
"=. c #71808E",
"-. c #6D8A9F",
";. c #758898",
":. c #5284A4",
">. c #5A82A5",
",. c #5487A9",
"<. c #5A85AA",
"1. c #558AAB",
"2. c #598AAD",
"3. c #5C89A6",
"4. c #578FB2",
"5. c #5C8DB3",
"6. c #5692B5",
"7. c #5A92B5",
"8. c #5C95BA",
"9. c #5C99BE",
"0. c #5693B9",
"q. c #6F8CA0",
"w. c #6790AA",
"e. c #608DB5",
"r. c #6193B9",
"t. c #639BBD",
"y. c #6B9BB9",
"u. c #6894B0",
"i. c #779BB3",
"p. c #6FA1BE",
"a. c #74A3BF",
"s. c #5D9CC3",
"d. c #619BC3",
"f. c #5EA0C6",
"g. c #5FA3CA",
"h. c #66A1C4",
"j. c #6CA3C3",
"k. c #61A5CD",
"l. c #6AA7CA",
"z. c #68A9CE",
"x. c #7CAECA",
"c. c #7EB2CF",
"v. c #62A7D0",
"b. c #63ABD4",
"n. c #6BACD1",
"m. c #64AED8",
"M. c #6EB1D5",
"N. c #65B2DC",
"B. c #7CB5D4",
"V. c #7CBADC",
"C. c #73B4D8",
"Z. c #66B5E0",
"A. c #6CBBE5",
"S. c #7BBDE0",
"D. c #71BDE6",
"F. c #7AC3EA",
"G. c #829AAA",
"H. c #85A1B3",
"J. c #89A6B9",
"K. c #83A7BD",
"L. c #83AAC1",
"P. c #8EAFC2",
"I. c #8AB2C8",
"U. c #92B1C3",
"Y. c #96B6C8",
"T. c #87BAD7",
"R. c #81BFE0",
"E. c #8EC1DD",
"W. c #9BC1D5",
"Q. c #90C2DD",
"!. c #99C6DE",
"~. c #8DC5E3",
"^. c #8EC8E6",
"/. c #8DCAE9",
"(. c #82C4E6",
"). c #9CCBE4",
"_. c #9ACFEA",
"`. c #92C9E5",
"'. c #9DD1EB",
"]. c #9ED8F5",
"[. c #A4CEE3",
"{. c #A6D1E6",
"}. c #A5D4EB",
"|. c #A9D5EB",
" X c #AED8ED",
".X c #AAD3E7",
"XX c #A9DDF6",
"oX c None",
/* pixels */
"oXoXoXoXoXoXoXoXoXoXoXoXoXoXoXoXoXoXoXoXoXoXO + . O oXoXoXoXoXoXoXoXoXoXoXoXoXoXoXoXoXoXoXoXoXoXoXoXoXoXoXoXoXoXoXoXoXoX",
"oXoXoXoXoXoXoXoXoXoXoXoXoXoXoXoXoXoXoXoXoXoX$ $ $ $ oXoXoXoXoXoXoXoXoXoXoXoXoXoXoXoXoXoXoXoXoXoXoXoXoXoXoXoXoXoXoXoXoXoX",
"oXoXoXoXoXoXoXoXoXoXoXoXoXoXoXoXoXoXoXoXoXoX, < < , , oXoXoXoXoXoXoXoXoXoXoXoXoXoXoXoXoXoXoXoXoXoXoXoXoXoXoXoXoXoXoXoXoX",
"oXoXoXoXoXoXoXoXoXoXoXoXoXoXoXoXoXoXoXoXoX< i s g d q ; oXoXoXoXoXoXoXoXoXoXoXoXoXoXoXoXoXoXoXoXoXoXoXoXoXoXoXoXoXoXoXoX",
"oXoXoXoXoXoXoXoXoXoXoXoXoXoXoXoXoXoXoXoX% 8 h Q ] K a , +   O + @ oXoXoXoXoXoXoXoXoXoXoXoXoXoXoXoXoXoXoXoXoXoXoXoXoXoXoX",
"oXoXoXoXoXoXoXoXoXoXoXoXoXoXoXoXoXoXoX+ & 8 K :.6.&.A 8 & $ $ % % % oXoXoXoXoXoXoXoXoXoXoXoXoXoXoXoXoXoXoXoXoXoXoXoXoXoX",
"oXoXoXoXoXoXoXoXoXoXoXoXoXoXoXoXoXoXoX+ % 8 K 1.f.7.` N k 6 8 8 5 < oXoXoXoXoXoXoXoXoXoXoXoXoXoXoXoXoXoXoXoXoXoXoXoXoXoX",
"oXoXoXoXoXoXoXoXoXoXoXoXoXoXoXoXoXoXoX+ % q J 1.k.h.u.@.T I P J h d 5 # oX    oXoXoXoXoXoXoXoXoXoXoXoXoXoXoXoXoXoXoXoXoX",
"oXoXoXoXoXoXoXoXoXoXoXoXoXoXoXoXoXoXoX+ ; 8 K ,.k.M.x.a.H.a.w.3.] j q % + O + @ @ oXoXoXoXoXoXoXoXoXoXoXoXoXoXoXoXoXoXoX",
"oXoXoXoXoXoXoXoXoXoXoXoXoXoXoXoXoXoXoX+ % 5 j ,.z.V.E.!.!.Q.T.n.7.! d , ; % % % & oXoXoXoXoXoXoXoXoXoXoXoXoXoXoXoXoXoXoX",
"oXoXoXoXoXoXoXoXoXoXoXoXoXoXoXoXoXoXoX+ # 5 j :.k.S.^.'.}.'.^.V.l.*.J d i q i i q 5 oXoXoXoXoXoXoXoXoXoXoXoXoXoXoXoXoXoX",
"oXoXoXoXoXoXoXoXoXoXoXoXoXoXoXoXoXoXoX. # < j :.z.S.^.'.}.}.'.^.c.p.*.~ J K K K B d , $ oXoXoXoXoXoXoXoXoXoXoXoXoXoXoXoX",
"oXoXoXoXoXoXoXoXoXoXoX# # # # oXoXoXoX@ $ 8 j ,.z.S.~._.{.{.}.).E.c.p.6.6.0.0.1._ s < $ + oXoXoXoXoXoXoXoXoXoXoXoXoXoXoX",
"oXoXoXoXoXoXoXoXoXoXoX; ; ; ; oXoXoXoX; < p L 7.n.S.^.).{.|..X{._.E.V.M.b.m.m.f.{ g < # O oXoXoXoXoXoXoXoXoXoXoXoXoXoXoX",
"oXoXoXoXoXoXoXoXoXoX5 q d d q < oXoX, q s K *.p.V.^._.}.|. X X X}._./.(.F.F.Z.g.&.g , # o oXoXoXoXoXoXoXoXoXoXoXoXoXoXoX",
"oXoXoXoXoXoXoXoXoX* q h E Q j q * ; i j _ 3.p.T.`.'.}.|. X X X X X|.'././.F.F.b.&.g , @   oXoXoXoXoXoXoXoXoXoXoXoXoXoXoX",
"oXoXoXoXoXoXoXoX+ ; i L :.1._ a , < s ] 7.l.B.Q.!.{.[.[.{.{.{.[.{.{.[.!.`.E.C.f.{ g < # + oXoXoXoXoXoXoXoXoXoXoXoXoXoXoX",
"oXoXoXoXoXoXoX. + ; p ` r.h.*.A q i K :.k.M.c.I.Y.J.Y.J.J.Y.Y.J.Y.J.J.Y.L.a.y.1._ h i 5 > oXoXoXoXoXoXoXoXoXoXoXoXoXoXoX",
"oXoXoXoXoXoXoX. + ; z ' a.c.y.| A K [ 0.b.z.p.-.=.=.+.+.+.=.=.+.+.$.=.#.@.Y ` J K K j h f i oXoXoXoXoXoXoXoXoXoXoXoXoXoX",
"oXoXoXoXoXoXoX  + ; z @.a.E.c.y.,.,.0.g.v.t.*.I v l k l l l l l x x x x k p i i g L [ [ L d > @ oXoXoXoXoXoXoXoXoXoXoXoX",
"oXoXoXoXoXoXoX  + ; x =.P.!.~.C.k.g.g.g.g.,.K p 1 ; ; > 1 1 1 1 , , ; > 1 ; ; 3 d ~ :.1.~ a ; # O oXoXoXoXoXoXoXoXoXoXoX",
"oXoXoXoXoXoXoX. + ; x =.U.{.'./.S.M.l.8.,._ g i < , , < 5 5 5 5 < 8 5 5 < , > 3 d K [ &.J i ; @ + oXoXoXoXoXoXoXoXoXoXoX",
"oXoXoXoXoXoXoX  + ; c =.Y.|.XX]./.V.y.| K g s a p s f g j j j j j j j j h f a a g B J h i , ; # + oXoXoXoXoXoXoXoXoXoXoX",
"oXoXoXoXoXoXoX  + ; x =.Y.{.XX X_.I.-.I p q a B L _ &.:.:.1.:.:.,.,.,.:.%.] ! L B f i < > ; # @ @ oXoXoXoXoXoXoXoXoXoXoX",
"oXoXoXoXoXoXoXoX+ ; x +.J.W.[.[.Y.J.+.v 8 8 f W *.2.9.s.g.v.g.v.g.v.v.g.f.0.2. .L a 3 ; % $ # # # oXoXoXoXoXoXoXoXoXoXoX",
"oXoXoXoXoXoXoXoX@ : k T ;.G.H.H.H.;.Y v q r Z  .7.s.v.b.N.N.N.N.N.N.N.m.b.g.s.1.} A p 3 ; % $ # # oXoXoXoXoXoXoXoXoXoXoX",
"oXoXoXoXoXoXoXoXoXoXe v C U U U U I C n n A ] 2.s.k.b.N.N.N.Z.Z.Z.N.N.m.b.b.g.9.,.} D s q > % # + oXoXoXoXoXoXoXoXoXoXoX",
"oXoXoXoXoXoXoXoXoXoXoX4 6 6 6 6 6 u b S !  .<.s.k.v.b.b.N.m.b.N.m.b.m.b.b.b.v.g.8.,. .L b 3 * @ + oXoXoXoXoXoXoXoXoXoXoX",
"oXoXoXoXoXoXoXoXoXoXoX$ % # # # $ > p D  .<.8.s.d.k.k.k.f.s.s.s.s.g.v.b.b.b.k.d.8.<.X.W f 8 * # + oXoXoXoXoXoXoXoXoXoXoX",
"oXoXoXoXoXoXoXoXoXoXoX+ . + . . + ; r D X.5.5.e.r.r.e.e.5.,.X.[ X.1.s.g.v.d.d.5.>.} W V i , % # + oXoXoXoXoXoXoXoXoXoXoX",
"oXoXoXoXoXoXoXoXoXoXoX+ @ + . . @ ; r L  .%.%.%.%.%.%.%.O.W V B j ] 4.k.k.d.e...^ F a e < ; $ # @ oXoXoXoXoXoXoXoXoXoXoX",
"oXoXoXoXoXoXoXoXoXoXoX# # # @ + # > p D  .%.%.( / R / R G M e 3 q A :.d.d.e...R m r 2 * % # $ # # oXoXoXoXoXoXoXoXoXoXoX",
"oXoXoXoXoXoXoXoXoXoXoXoX# # @ + $ > d L } O.) G m m m m M 0 - = 2 B :.s.t.>.^ m y 2 = $ + $ @ $ # oXoXoXoXoXoXoXoXoXoXoX",
"oXoXoXoXoXoXoXoXoXoXoXoXoX# @ @ # > p L  .} D M y y y y 7 - $ + ; f { 9.8.} V 0 1 = $ + O @ @ @ # oXoXoXoXoXoXoXoXoXoXoX",
"oXoXoXoXoXoXoXoXoXoXoXoXoXoX+ + $ > p D } ( Z r 1 - = - * % + # , g :.9.7.! d > = $ + + + @ @ $ # oXoXoXoXoXoXoXoXoXoXoX",
"oXoXoXoXoXoXoXoXoXoXoXoXoXoXoX+ $ 1 p D ( W n 8 - = = = * % $ & 5 A :.s.4.W i ; = $ % $ $ # # # # oXoXoXoXoXoXoXoXoXoXoX",
"oXoXoXoXoXoXoXoXoXoXoXoXoXoXoXoX$ > q B D F n q 4 2 3 8 8 8 8 8 s ! 6.f.0._ g q < 3 3 2 > & % # @ oXoXoXoXoXoXoXoXoXoXoX",
"oXoXoXoXoXoXoXoXoXoXoXoXoXoXoXoXoX; 8 r a a a f n n h A A j A K ~ :.s.g.f.1._ K A B n a 8 > % # @ oXoXoXoXoXoXoXoXoXoXoX",
"oXoXoXoXoXoXoXoXoXoXoXoXoXoXoXoXoXoX> 1 3 q a F W ] { :.1.1.1.1.6.9.g.b.g.f.0.,.%.[ ~ D a 3 & # @ oXoXoXoXoXoXoXoXoXoXoX",
"oXoXoXoXoXoXoXoXoXoXoXoXoXoXoXoXoXoXoX# & 2 p S } %.7.s.g.g.g.g.g.g.g.f.g.g.f.f.9.1.X.) n 8 * # + oXoXoXoXoXoXoXoXoXoXoX",
"oXoXoXoXoXoXoXoXoXoXoXoXoXoXoXoXoXoXoXoX# > w B E } <.s.k.m.N.N.v.s.1.:.,.4.s.s.7.:.~ S a 8 * # oXoXoXoXoXoXoXoXoXoXoXoX",
"oXoXoXoXoXoXoXoXoXoXoXoXoXoXoXoXoXoXoXoXoX* 3 q a Z ] 4.d.b.N.N.g.1.~ A D ] 5.7.>.W B r 0 , oXoXoXoXoXoXoXoXoXoXoXoXoXoX",
"oXoXoXoXoXoXoXoXoXoXoXoXoXoXoXoXoXoXoXoXoXoX& ; 3 p A } 5.d.v.v.0.] f q r A } o.~ n q > * oXoXoXoXoXoXoXoXoXoXoXoXoXoXoX",
"oXoXoXoXoXoXoXoXoXoXoXoXoXoXoXoXoXoXoXoXoXoXoX# & 8 b E } >.7.7.,.K q > 2 p D W A p > % + oXoXoXoXoXoXoXoXoXoXoXoXoXoXoX",
"oXoXoXoXoXoXoXoXoXoXoXoXoXoXoXoXoXoXoXoXoXoXoXoX$ > w n Z L ! ~ Q g 5 % ; e a n a 8 * # oXoXoXoXoXoXoXoXoXoXoXoXoXoXoXoX",
"oXoXoXoXoXoXoXoXoXoXoXoXoXoXoXoXoXoXoXoXoXoXoXoXoX; 3 8 q q d d d q , oX& 2 8 q 8 2 oXoXoXoXoXoXoXoXoXoXoXoXoXoXoXoXoXoX",
"oXoXoXoXoXoXoXoXoXoXoXoXoXoXoXoXoXoXoXoXoXoXoXoXoXoX* * ; ; ; ; ; > oXoXoX* * * * * oXoXoXoXoXoXoXoXoXoXoXoXoXoXoXoXoXoX",
"oXoXoXoXoXoXoXoXoXoXoXoXoXoXoXoXoXoXoXoXoXoXoXoXoXoXoX# # # # # # oXoXoXoXoX# # # oXoXoXoXoXoXoXoXoXoXoXoXoXoXoXoXoXoXoX",
"oXoXoXoXoXoXoXoXoXoXoXoXoXoXoXoXoXoXoXoXoXoXoXoXoXoXoXoX+ O O O oXoXoXoXoXoXoX+ oXoXoXoXoXoXoXoXoXoXoXoXoXoXoXoXoXoXoXoX",
"oXoXoXoXoXoXoXoXoXoXoXoXoXoXoXoXoXoXoXoXoXoXoXoXoXoXoXoXoXoXoXoXoXoXoXoXoXoXoXoXoXoXoXoXoXoXoXoXoXoXoXoXoXoXoXoXoXoXoXoX",
"oXoXoXoXoXoXoXoXoXoXoXoXoXoXoXoXoXoXoXoXoXoXoXoXoXoXoXoXoXoXoXoXoXoXoXoXoXoXoXoXoXoXoXoXoXoXoXoXoXoXoXoXoXoXoXoXoXoXoXoX",
"oXoXoXoXoXoXoXoXoXoXoXoXoXoXoXoXoXoXoXoXoXoXoXoXoXoXoXoXoXoXoXoXoXoXoXoXoXoXoXoXoXoXoXoXoXoXoXoXoXoXoXoXoXoXoXoXoXoXoXoX",
"oXoXoXoXoXoXoXoXoXoXoXoXoXoXoXoXoXoXoXoXoXoXoXoXoXoXoXoXoXoXoXoXoXoXoXoXoXoXoXoXoXoXoXoXoXoXoXoXoXoXoXoXoXoXoXoXoXoXoXoX",
"oXoXoXoXoXoXoXoXoXoXoXoXoXoXoXoXoXoXoXoXoXoXoXoXoXoXoXoXoXoXoXoXoXoXoXoXoXoXoXoXoXoXoXoXoXoXoXoXoXoXoXoXoXoXoXoXoXoXoXoX",
"oXoXoXoXoXoXoXoXoXoXoXoXoXoXoXoXoXoXoXoXoXoXoXoXoXoXoXoXoXoXoXoXoXoXoXoXoXoXoXoXoXoXoXoXoXoXoXoXoXoXoXoXoXoXoXoXoXoXoXoX",
"oXoXoXoXoXoXoXoXoXoXoXoXoXoXoXoXoXoXoXoXoXoXoXoXoXoXoXoXoXoXoXoXoXoXoXoXoXoXoXoXoXoXoXoXoXoXoXoXoXoXoXoXoXoXoXoXoXoXoXoX",
"oXoXoXoXoXoXoXoXoXoXoXoXoXoXoXoXoXoXoXoXoXoXoXoXoXoXoXoXoXoXoXoXoXoXoXoXoXoXoXoXoXoXoXoXoXoXoXoXoXoXoXoXoXoXoXoXoXoXoXoX",
"oXoXoXoXoXoXoXoXoXoXoXoXoXoXoXoXoXoXoXoXoXoXoXoXoXoXoXoXoXoXoXoXoXoXoXoXoXoXoXoXoXoXoXoXoXoXoXoXoXoXoXoXoXoXoXoXoXoXoXoX",
"oXoXoXoXoXoXoXoXoXoXoXoXoXoXoXoXoXoXoXoXoXoXoXoXoXoXoXoXoXoXoXoXoXoXoXoXoXoXoXoXoXoXoXoXoXoXoXoXoXoXoXoXoXoXoXoXoXoXoXoX",
"oXoXoXoXoXoXoXoXoXoXoXoXoXoXoXoXoXoXoXoXoXoXoXoXoXoXoXoXoXoXoXoXoXoXoXoXoXoXoXoXoXoXoXoXoXoXoXoXoXoXoXoXoXoXoXoXoXoXoXoX"
};
