/* XPM */
static char *result[] = {
/* columns rows colors chars-per-pixel */
"60 60 193 2 ",
"   c #1E0306",
".  c #1D070D",
"X  c #1E090E",
"o  c #1F0A10",
"O  c #20060A",
"+  c #21090E",
"@  c #220D13",
"#  c #241016",
"$  c #25131B",
"%  c #28131D",
"&  c #29181F",
"*  c #2B1620",
"=  c #271821",
"-  c #291B24",
";  c #2B1E28",
":  c #301C29",
">  c #2C222C",
",  c #31232C",
"<  c #2E2631",
"1  c #2E2935",
"2  c #2F2C39",
"3  c #312431",
"4  c #312935",
"5  c #312E3C",
"6  c #38293A",
"7  c #31303E",
"8  c #3B333C",
"9  c #3B2D41",
"0  c #372F40",
"q  c #333443",
"w  c #3C3343",
"e  c #3A3649",
"r  c #353B4B",
"t  c #393C4C",
"y  c #3B3945",
"u  c #393E51",
"i  c #413B44",
"p  c #413E48",
"a  c #453E57",
"s  c #374153",
"d  c #3A4255",
"f  c #3B465A",
"g  c #3C4A5E",
"h  c #374558",
"j  c #3D4D62",
"k  c #3E5166",
"l  c #3E5369",
"z  c #3F586F",
"x  c #45414C",
"c  c #494751",
"v  c #4B4A55",
"b  c #46485C",
"n  c #52525C",
"m  c #494561",
"M  c #414D63",
"N  c #484B66",
"B  c #425065",
"V  c #42556C",
"C  c #42596F",
"Z  c #4C5868",
"A  c #525662",
"S  c #445B74",
"D  c #465E79",
"F  c #4A5E79",
"G  c #4C5A73",
"H  c #545C7E",
"J  c #505473",
"K  c #59616E",
"L  c #45637C",
"P  c #4A637D",
"I  c #5D6572",
"U  c #56657A",
"Y  c #626A76",
"T  c #646D7A",
"R  c #606774",
"E  c #565D80",
"W  c #456681",
"Q  c #4B6581",
"!  c #476984",
"~  c #4A6A84",
"^  c #4C6E8A",
"/  c #556687",
"(  c #526D8D",
")  c #586D81",
"_  c #4B728E",
"`  c #53738C",
"'  c #4C7592",
"]  c #4E7B9A",
"[  c #4E7997",
"{  c #527494",
"}  c #597195",
"|  c #527995",
" . c #547799",
".. c #5B749A",
"X. c #527C9C",
"o. c #58789C",
"O. c #667381",
"+. c #6D7B8A",
"@. c #6A7786",
"#. c #557FA0",
"$. c #5A7EA4",
"%. c #51809F",
"&. c #71808F",
"*. c #6B8496",
"=. c #718291",
"-. c #768B9C",
";. c #4F83A4",
":. c #5383A4",
">. c #5E8AA6",
",. c #5487A8",
"<. c #5B85AA",
"1. c #558AAC",
"2. c #5A89AE",
"3. c #5E87A2",
"4. c #568FB2",
"5. c #5C8CB2",
"6. c #5790B4",
"7. c #5A92B5",
"8. c #5B95BA",
"9. c #5C99BE",
"0. c #5795BA",
"q. c #628FAD",
"w. c #6190AD",
"e. c #7F98A9",
"r. c #608CB4",
"t. c #6195BE",
"y. c #6796B4",
"u. c #7C9FB5",
"i. c #7099B2",
"p. c #73A1BD",
"a. c #5D9CC2",
"s. c #619EC5",
"d. c #629FC9",
"f. c #5EA0C7",
"g. c #5EA2C9",
"h. c #61A5CD",
"j. c #65A8CE",
"k. c #6DA9CB",
"l. c #69A5C7",
"z. c #79AFCE",
"x. c #73A8C7",
"c. c #62A7D0",
"v. c #62AAD3",
"b. c #6BADD3",
"n. c #64AFD9",
"m. c #65B3DD",
"M. c #6BB3DB",
"N. c #6EB0D5",
"B. c #7DB7D7",
"V. c #7ABCDF",
"C. c #75B6D9",
"Z. c #6EBDE7",
"A. c #71BAE1",
"S. c #7ABEE2",
"D. c #7CC2E8",
"F. c #819AAB",
"G. c #8096A6",
"H. c #8AA4B5",
"J. c #84A4B9",
"K. c #82AAC1",
"L. c #90AFC2",
"P. c #8BB2C8",
"I. c #80B1CD",
"U. c #93B2C4",
"Y. c #94B9CD",
"T. c #97B9CC",
"R. c #84B9D6",
"E. c #81BCDC",
"W. c #8DBFDA",
"Q. c #83B7D3",
"!. c #92C2DC",
"~. c #9BC6DC",
"^. c #A2C7DA",
"/. c #A1C9DE",
"(. c #82C2E4",
"). c #8DC6E4",
"_. c #84C7EA",
"`. c #8ECAEA",
"'. c #94C9E5",
"]. c #9ECCE4",
"[. c #92CCEA",
"{. c #94CAE6",
"}. c #9ED2EB",
"|. c #92D1F0",
" X c #A4CCE1",
".X c #A3D0E6",
"XX c #A8D2E7",
"oX c #A5D5ED",
"OX c #ABD6EB",
"+X c #ADD8ED",
"@X c #B0DAED",
"#X c #A3D6F0",
"$X c None",
/* pixels */
"$X$X$X$X$X$X$X$X$X$X$X$X$X$X$X$X$X$X$X$X$X$X$X$X$X$X$X$X$X$X$X$X$X$X$X$X$X$X$X$X$X$X$X$X$X$X$X$X$X$X$X$X$X$X$X$X$X$X$X$X",
"$X$X$X$X$X$X$X$X$X$X$X$X$X$X$X$X$X$X$X$X$X$X$X$X$X$X$X$X$X$X$X$X$X$X$X$X$X$X$X$X$X$X$X$X$X$X$X$X$X$X$X$X$X$X$X$X$X$X$X$X",
"$X$X$X$X$X$X$X$X$X$X$X$X$X$X$X$X$X$X$X$X$X$X$X$X$X$X$X$X$X$X$X$X$X$X$X$X$X$X$X$X$X$X$X$X$X$X$X$X$X$X$X$X$X$X$X$X$X$X$X$X",
"$X$X$X$X$X$X$X$X$X$X$X$X$X$X$X$X$X$X$X$X$X$X$X$X$X$X$X$X$X$X$X$X$X$X$X$X$X$X$X$X$X$X$X$X$X$X$X$X$X$X$X$X$X$X$X$X$X$X$X$X",
"$X$X$X$X$X$X$X$X$X$X$X$X$X$X$X$X$X$X$X@ @ @ $X$X$X$X$X$X$X$X$X$X$X$X$X$X$X$X$X$X$X$X$X$X$X$X$X$X$X$X$X$X$X$X$X$X$X$X$X$X",
"$X$X$X$X$X$X$X$X$X$X$X$X$X$X$X$X$X$X$X= = = = $X$X$X$X$X$X$X$X$X$X$X$X$X$X$X$X$X$X$X$X$X$X$X$X$X$X$X$X$X$X$X$X$X$X$X$X$X",
"$X$X$X$X$X$X$X$X$X$X$X$X$X$X$X$X$X$X5 7 q q 2 $X$X$X$X$X$X$X$X$X$X$X$X$X$X$X$X$X$X$X$X$X$X$X$X$X$X$X$X$X$X$X$X$X$X$X$X$X",
"$X$X$X$X$X$X$X$X$X$X$X$X$X$X$X$X$X1 s k C B h 1 @ $X$X$X+ + + $X$X$X$X$X$X$X$X$X$X$X$X$X$X$X$X$X$X$X$X$X$X$X$X$X$X$X$X$X",
"$X$X$X$X$X$X$X$X$X$X$X$X$X$X$X$X& 2 j ^ %.' z 7 & + o @ # @ # @ X $X$X$X$X$X$X$X$X$X$X$X$X$X$X$X$X$X$X$X$X$X$X$X$X$X$X$X",
"$X$X$X$X$X$X$X$X$X$X$X$X$X$X$X@ $ 2 l %.0.1.L s < = = > > ; ; > > > $X$X$X$X$X$X$X$X$X$X$X$X$X$X$X$X$X$X$X$X$X$X$X$X$X$X",
"$X$X$X$X$X$X$X$X$X$X$X$X$X$X$X+ & 2 z ;.f.9.%.z s r r r s r r r r q 1 $X$X$X$X$X$X$X$X$X$X$X$X$X$X$X$X$X$X$X$X$X$X$X$X$X",
"$X$X$X$X$X$X$X$X$X$X$X$X$X$X$X+ $ 2 z ,.g.g.6.%.~ L L W W W ! W S g 7 $ +   + + $X$X$X$X$X$X$X$X$X$X$X$X$X$X$X$X$X$X$X$X",
"$X$X$X$X$X$X$X$X$X$X$X$X$X$X$X@ & 2 l %.f.v.g.f.7.7.6.6.6.7.7.6.%.L r > # @ # # $ $X$X$X$X$X$X$X$X$X$X$X$X$X$X$X$X$X$X$X",
"$X$X$X$X$X$X$X$X$X$X$X$X$X$X$X@ $ 2 j _ 6.f.g.g.j.v.v.v.n.n.M.b.8.` j 5 > > > < > $X$X$X$X$X$X$X$X$X$X$X$X$X$X$X$X$X$X$X",
"$X$X$X$X$X$X$X$X$X$X$X$X$X$X$X$X& 1 s S _ %.6.g.n.M.C.V.S.(.D.V.k.>.! j h h f f s r $X$X$X$X$X$X$X$X$X$X$X$X$X$X$X$X$X$X",
"$X$X$X$X$X$X$X$X@ + $X$X$X$X$X$X$X$X2 s h S [ 0.n.M.D.).'.{.{.).B.p.>.' _ _ _ ! S f 1 & $X$X$X$X$X$X$X$X$X$X$X$X$X$X$X$X",
"$X$X$X$X$X$X$X$X& $ & $X$X$X$X$X$X$X> > 5 h L 1.j.A.(.~.]..X.X].!.R.k.l.0.a.a.4._ j 2 $ + $X$X$X$X$X$X$X$X$X$X$X$X$X$X$X",
"$X$X$X$X$X$X$X1 2 2 1 < $X$X$X$X$X$X; > 7 j ^ y.N.(.{.].oXOXOXXX].!.(.N.M.M.m.g.%.k 2 $ + $X$X$X$X$X$X$X$X$X$X$X$X$X$X$X",
"$X$X$X$X$X$X2 s g j f r > $X$X$X$X$X7 s B P %.x.(.{.}.oX@X@X@XOXoX}.[._.D.D.D.v.;.l 1 # . $X$X$X$X$X$X$X$X$X$X$X$X$X$X$X",
"$X$X$X$X$X- 7 B ! _ L g < #     # < s D | w.x.R.~.}.oXOX+X+X@XOXOXoX}.}.`._.Z.c.%.l 1 # + $X$X$X$X$X$X$X$X$X$X$X$X$X$X$X",
"$X$X$X$X@ & y L ;.7.%.C 7 ; # # - 7 l ] 0.v.B.!.~././././././././././.^.!.E.N.9.[ k 2 - # $X$X$X$X$X$X$X$X$X$X$X$X$X$X$X",
"$X$X$X$X@ - r P 8.k.y._ g q 2 2 q f ! 1.j.N.z.J.H.H.H.H.H.H.H.H.H.H.H.H.p.i.w.:.! z h r 7 1 $X$X$X$X$X$X$X$X$X$X$X$X$X$X",
"$X$X$X$X@ & r T p.B.z.w.^ S z z D ! ;.f.n.j.y.*.T T T T T T T T T T T T Y I G S L L L z l s > $X$X$X$X$X$X$X$X$X$X$X$X$X",
"$X$X$X$X+ & s T p.!.!.z.7.,.;.;.;.6.f.g.g.9.| Z x i 8 i i i i i i i i i y 8 q r j ! %.%.! f > # $X$X$X$X$X$X$X$X$X$X$X$X",
"$X$X$X$X# = p R G.Y.!.B.k.j.g.v.j.h.j.j.a.:.D u 4 , > > < < < < > < < > > > ; 1 h ! ,.1.! h > # @ $X$X$X$X$X$X$X$X$X$X$X",
"$X$X$X$Xo = 8 n +.G.J.B.B.V.S.D.S.C.l.7.X.! k r 7 2 7 q r r r r r r r r q 7 5 q f L ' _ z r > $ @ $X$X$X$X$X$X$X$X$X$X$X",
"$X$X$X$X# & , i n R =.p.Q.).|.|.`.R.i.` C j f j j B C L L L L L W W W L D z j M k B k g s 1 - $ @ $X$X$X$X$X$X$X$X$X$X$X",
"$X$X$X$X# $ & - 4 p K -.P.].oXoX'.P.*.Z r q h G ~ | ;.1.6.6.6.6.4.6.6.4.,.:.{ ~ S f r 1 > - $ $ $ $X$X$X$X$X$X$X$X$X$X$X",
"$X$X$X$X$ $ # # # , v &.U./.OX XT.H.@.v 7 q M ^ :.6.f.g.v.v.v.v.v.v.v.c.d.a.5.#.P b 7 > = & $ $ $ $X$X$X$X$X$X$X$X$X$X$X",
"$X$X$X$X$X$ @ . + - v &.T./.^.U.G.+.I b t g D X.7.f.v.n.m.m.m.m.m.m.m.n.v.h.s.4.X.L f q < ; * $ # $X$X$X$X$X$X$X$X$X$X$X",
"$X$X$X$X$X$Xo . X - v =.U.^.U.-.I A b B S P  .5.f.v.n.n.m.m.m.Z.m.m.m.m.n.v.h.a.5. .Q B t 3 = $ @ $X$X$X$X$X$X$X$X$X$X$X",
"$X$X$X$X$X$X$X. @ , v =.U.T.F.I x 8 s G ^ #.5.a.g.v.v.v.v.v.v.g.v.v.v.v.v.v.h.g.9.5. .Q M q ; $ @ $X$X$X$X$X$X$X$X$X$X$X",
"$X$X$X$X$X$X$X$X# > v @.F.F.+.v < > r D  .<.t.a.s.d.d.s.a.a.a.6.a.a.g.v.c.c.d.d.5.<.{ Q j q - $ @ $X$X$X$X$X$X$X$X$X$X$X",
"$X$X$X$X$X$X$X$X$X> x K T T A w - ; r D #.<.r.5.r.2.r.r.$.#.( ^ _ #.a.c.h.d.a.$.$.( F j e 1 * $ @ $X$X$X$X$X$X$X$X$X$X$X",
"$X$X$X$X$X$X$X$X$X$X8 x x x 8 , & > u F  .$.$...} ....} } Q N f k _ 1.a.d.s.$.{ E M u q < - * $ # $X$X$X$X$X$X$X$X$X$X$X",
"$X$X$X$X$X$X$X$X$X$X$X, , , & & * < h F { o.} / E H E E J a 0 1 q z ;.a.d.5.} E m e < - = $ $ $ $ $X$X$X$X$X$X$X$X$X$X$X",
"$X$X$X$X$X$X$X$X$X$X$X$X+ # @ @ $ < u F {  ./ J m m m m a 9 : % 1 l ] a.a.#.E m i 3 = $ o # $ $ $ $X$X$X$X$X$X$X$X$X$X$X",
"$X$X$X$X$X$X$X$X$X$X$X$X$X+ X X $ < h Q  .( F b 9 i 9 9 9 : # # > k ] a.0.[ N 9 3 * # o o $ $ $ $ $X$X$X$X$X$X$X$X$X$X$X",
"$X$X$X$X$X$X$X$X$X$X$X$X$X$X+ # $ 1 h F  .( V e 3 : : ; : % # $ 1 z ] a.4.^ u 3 % % $ @ $ o $ $ $ $X$X$X$X$X$X$X$X$X$X$X",
"$X$X$X$X$X$X$X$X$X$X$X$X$X$X$X@ * 3 u F ~ Q M q : : - ; ; - - ; r z 1.a.4.! u 1 - * - - = $ $ $ $ $X$X$X$X$X$X$X$X$X$X$X",
"$X$X$X$X$X$X$X$X$X$X$X$X$X$X$X$X& < r M G B j e q q r r u r r u l _ 6.f.0.] S s e q e 0 < ; = $ $ $X$X$X$X$X$X$X$X$X$X$X",
"$X$X$X$X$X$X$X$X$X$X$X$X$X$X$X$X$X> 5 r u h j j B S D W ! ! ! ! ' 1.a.v.g.4.] ! D D C j e 1 = $ @ $X$X$X$X$X$X$X$X$X$X$X",
"$X$X$X$X$X$X$X$X$X$X$X$X$X$X$X$X$X$X- > 1 q g G ^  .,.1.6.0.6.6.0.f.g.v.c.f.a.4.1.#.' Q j q - $ @ $X$X$X$X$X$X$X$X$X$X$X",
"$X$X$X$X$X$X$X$X$X$X$X$X$X$X$X$X$X$X$X# = 4 u F ( :.6.a.g.c.c.c.g.g.a.a.a.f.g.a.a.<. .Q j q ; $ @ $X$X$X$X$X$X$X$X$X$X$X",
"$X$X$X$X$X$X$X$X$X$X$X$X$X$X$X$X$X$X$X$X$ < r M D ' :.t.h.b.n.A.n.0.,.[ ] 1.a.a.5.X.Q V h q - $ $X$X$X$X$X$X$X$X$X$X$X$X",
"$X$X$X$X$X$X$X$X$X$X$X$X$X$X$X$X$X$X$X$X$X; 3 q d B ^ <.s.c.n.n.f.;.L k G ^ #.5.X.Q j r 0 < $X$X$X$X$X$X$X$X$X$X$X$X$X$X",
"$X$X$X$X$X$X$X$X$X$X$X$X$X$X$X$X$X$X$X$X$X$X= ; 3 t V { <.9.h.h.6.! g q r V ^  .Q j 0 > - $X$X$X$X$X$X$X$X$X$X$X$X$X$X$X",
"$X$X$X$X$X$X$X$X$X$X$X$X$X$X$X$X$X$X$X$X$X$X$X@ - 5 f D _ X.<.1.%.L r > 4 u S D G u < $ @ $X$X$X$X$X$X$X$X$X$X$X$X$X$X$X",
"$X$X$X$X$X$X$X$X$X$X$X$X$X$X$X$X$X$X$X$X$X$X$X$X& < r f B S L L L g 7 = > q d b d q - @ $X$X$X$X$X$X$X$X$X$X$X$X$X$X$X$X",
"$X$X$X$X$X$X$X$X$X$X$X$X$X$X$X$X$X$X$X$X$X$X$X$X$X> 4 5 q q r t r 7 $X$X$X< 2 q 5 1 $X$X$X$X$X$X$X$X$X$X$X$X$X$X$X$X$X$X",
"$X$X$X$X$X$X$X$X$X$X$X$X$X$X$X$X$X$X$X$X$X$X$X$X$X$X= - - ; - ; > > $X$X$X= - - - $X$X$X$X$X$X$X$X$X$X$X$X$X$X$X$X$X$X$X",
"$X$X$X$X$X$X$X$X$X$X$X$X$X$X$X$X$X$X$X$X$X$X$X$X$X$X$X# # @ # @ @ $X$X$X$X$X$ @ # $X$X$X$X$X$X$X$X$X$X$X$X$X$X$X$X$X$X$X",
"$X$X$X$X$X$X$X$X$X$X$X$X$X$X$X$X$X$X$X$X$X$X$X$X$X$X$X$X$X+ + $X$X$X$X$X$X$X$X$X$X$X$X$X$X$X$X$X$X$X$X$X$X$X$X$X$X$X$X$X",
"$X$X$X$X$X$X$X$X$X$X$X$X$X$X$X$X$X$X$X$X$X$X$X$X$X$X$X$X$X$X$X$X$X$X$X$X$X$X$X$X$X$X$X$X$X$X$X$X$X$X$X$X$X$X$X$X$X$X$X$X",
"$X$X$X$X$X$X$X$X$X$X$X$X$X$X$X$X$X$X$X$X$X$X$X$X$X$X$X$X$X$X$X$X$X$X$X$X$X$X$X$X$X$X$X$X$X$X$X$X$X$X$X$X$X$X$X$X$X$X$X$X",
"$X$X$X$X$X$X$X$X$X$X$X$X$X$X$X$X$X$X$X$X$X$X$X$X$X$X$X$X$X$X$X$X$X$X$X$X$X$X$X$X$X$X$X$X$X$X$X$X$X$X$X$X$X$X$X$X$X$X$X$X",
"$X$X$X$X$X$X$X$X$X$X$X$X$X$X$X$X$X$X$X$X$X$X$X$X$X$X$X$X$X$X$X$X$X$X$X$X$X$X$X$X$X$X$X$X$X$X$X$X$X$X$X$X$X$X$X$X$X$X$X$X",
"$X$X$X$X$X$X$X$X$X$X$X$X$X$X$X$X$X$X$X$X$X$X$X$X$X$X$X$X$X$X$X$X$X$X$X$X$X$X$X$X$X$X$X$X$X$X$X$X$X$X$X$X$X$X$X$X$X$X$X$X",
"$X$X$X$X$X$X$X$X$X$X$X$X$X$X$X$X$X$X$X$X$X$X$X$X$X$X$X$X$X$X$X$X$X$X$X$X$X$X$X$X$X$X$X$X$X$X$X$X$X$X$X$X$X$X$X$X$X$X$X$X",
"$X$X$X$X$X$X$X$X$X$X$X$X$X$X$X$X$X$X$X$X$X$X$X$X$X$X$X$X$X$X$X$X$X$X$X$X$X$X$X$X$X$X$X$X$X$X$X$X$X$X$X$X$X$X$X$X$X$X$X$X"
};
