/* XPM */
static char *result[] = {
/* columns rows colors chars-per-pixel */
"60 60 191 2 ",
"   c #1D060B",
".  c #1F060A",
"X  c #1F0A10",
"o  c #20060B",
"O  c #21090E",
"+  c #220D13",
"@  c #241017",
"#  c #25131B",
"$  c #29161E",
"%  c #271821",
"&  c #2A1B24",
"*  c #2A1E28",
"=  c #311E2B",
"-  c #2C222C",
";  c #27212D",
":  c #2D2631",
">  c #2E2A36",
",  c #2F2C39",
"<  c #332B36",
"1  c #392E37",
"2  c #322C3A",
"3  c #372637",
"4  c #31313F",
"5  c #3B323B",
"6  c #3A2D41",
"7  c #333443",
"8  c #3A3442",
"9  c #3D3945",
"0  c #363748",
"q  c #363B4B",
"w  c #383C4E",
"e  c #383749",
"r  c #373F51",
"t  c #3A3F52",
"y  c #413C45",
"u  c #423B52",
"i  c #463F59",
"p  c #374255",
"a  c #3A4254",
"s  c #3B465A",
"d  c #3B495D",
"f  c #3D4D63",
"g  c #3E5166",
"h  c #3E556B",
"j  c #3F586E",
"k  c #46434E",
"l  c #434453",
"z  c #4A4954",
"x  c #45435D",
"c  c #444B5C",
"v  c #484651",
"b  c #404D63",
"n  c #4E4F6D",
"m  c #425165",
"M  c #43536B",
"N  c #4E5969",
"B  c #48546A",
"V  c #565B67",
"C  c #5A5E69",
"Z  c #545966",
"A  c #445B73",
"S  c #4C5A75",
"D  c #4B5D79",
"F  c #485973",
"G  c #545678",
"H  c #525777",
"J  c #5C606B",
"K  c #45637C",
"L  c #49627C",
"P  c #5A6A7C",
"I  c #586676",
"U  c #646E7B",
"Y  c #65717E",
"T  c #466781",
"R  c #4B6682",
"E  c #466983",
"W  c #4A6A86",
"Q  c #4C6D8B",
"!  c #516981",
"~  c #556D8C",
"^  c #536385",
"/  c #4A718D",
"(  c #52718E",
")  c #5E7588",
"_  c #5A6D92",
"`  c #566E91",
"'  c #4C7592",
"]  c #4E7996",
"[  c #4E7C9B",
"{  c #527494",
"}  c #557799",
"|  c #517E9D",
" . c #5A7D9D",
".. c #577895",
"X. c #657383",
"o. c #6C7C8B",
"O. c #60788C",
"+. c #707F8D",
"@. c #637C94",
"#. c #547FA0",
"$. c #5B7EA3",
"%. c #5A829E",
"&. c #71808E",
"*. c #6A8296",
"=. c #768A99",
"-. c #5383A4",
";. c #5B83A5",
":. c #5186A9",
">. c #5C85AB",
",. c #568AAC",
"<. c #5A8AAD",
"1. c #5F89A5",
"2. c #568EB1",
"3. c #598DB2",
"4. c #5790B3",
"5. c #5A91B5",
"6. c #5B95BB",
"7. c #5B99BE",
"8. c #6B8EA5",
"9. c #658EAB",
"0. c #6790AD",
"q. c #7D95A7",
"w. c #6191BA",
"e. c #699CBB",
"r. c #689BBA",
"t. c #789DB5",
"y. c #779CB3",
"u. c #6BA0BF",
"i. c #7BA0B6",
"p. c #5D9DC3",
"a. c #619CC4",
"s. c #619FC8",
"d. c #5EA1C7",
"f. c #5EA3CA",
"g. c #5FA7D0",
"h. c #61A5CD",
"j. c #6FAACB",
"k. c #65A3C7",
"l. c #73ABCB",
"z. c #77A7C3",
"x. c #61A7D0",
"c. c #62ABD4",
"v. c #6EAFD3",
"b. c #64AED8",
"n. c #65B2DC",
"m. c #6AB2DA",
"M. c #6CB0D6",
"N. c #73B2D5",
"B. c #74B8DE",
"V. c #7AB9DC",
"C. c #79B4D6",
"Z. c #66B5E0",
"A. c #67B9E5",
"S. c #6AB9E3",
"D. c #73BBE2",
"F. c #7CBEE2",
"G. c #8197A7",
"H. c #8299A9",
"J. c #8AA5B6",
"K. c #86A5B8",
"L. c #8CAEC1",
"P. c #84AAC4",
"I. c #80B2CE",
"U. c #8CB0C6",
"Y. c #93B3C6",
"T. c #95B5C8",
"R. c #83B9D7",
"E. c #84BAD7",
"W. c #92BDD4",
"Q. c #9BBFD2",
"!. c #8EC3DF",
"~. c #9DC3D7",
"^. c #95C3DC",
"/. c #9EC5DA",
"(. c #A2C9DE",
"). c #A0C6DA",
"_. c #83C1E1",
"`. c #8CC6E5",
"'. c #94C9E5",
"]. c #9CCBE4",
"[. c #95CEEB",
"{. c #9ACFEA",
"}. c #A4CDE1",
"|. c #A5D0E6",
" X c #A4D3EA",
".X c #AAD5EB",
"XX c #ADD9EE",
"oX c #A2D7F2",
"OX c #AADDF6",
"+X c #B1DDF1",
"@X c None",
/* pixels */
"@X@X@X@X@X@X@X@X@X@X@X@X@X@X@X@X@X@X@X@X@X@X@X@X@X@X@X@X@X@X@X@X@X@X@X@X@X@X@X@X@X@X@X@X@X@X@X@X@X@X@X@X@X@X@X@X@X@X@X@X",
"@X@X@X@X@X@X@X@X@X@X@X@X@X@X@X@X@X@X@X@X@X@X@X@X@X@X@X@X@X@X@X@X@X@X@X@X@X@X@X@X@X@X@X@X@X@X@X@X@X@X@X@X@X@X@X@X@X@X@X@X",
"@X@X@X@X@X@X@X@X@X@X@X@X@X@X@X@X@X@X@X@X@X@X@X@X@X@X@X@X@X@X@X@X@X@X@X@X@X@X@X@X@X@X@X@X@X@X@X@X@X@X@X@X@X@X@X@X@X@X@X@X",
"@X@X@X@X@X@X@X@X@X@X@X@X@X@X@X@X@X@X@X@X@X@X@X@X@X@X@X@X@X@X@X@X@X@X@X@X@X@X@X@X@X@X@X@X@X@X@X@X@X@X@X@X@X@X@X@X@X@X@X@X",
"@X@X@X@X@X@X@X@X@X@X@X@X@X@X@X@X@X@X@X@X@X@X@X@X@X@X@X@X@X@X@X@X@X@X@X@X@X@X@X@X@X@X@X@X@X@X@X@X@X@X@X@X@X@X@X@X@X@X@X@X",
"@X@X@X@X@X@X@X@X@X@X@X@X@X@X@X@X@X@X@X@X@X@X@X@X@X@X@X@X@X@X@X@X@X@X@X@X@X@X@X@X@X@X@X@X@X@X@X@X@X@X@X@X@X@X@X@X@X@X@X@X",
"@X@X@X@X@X@X@X@X@X@X@X@X@X@X@X@X@X@X@X@X@X@X@X@X@X@X@X@X@X@X@X@X@X@X@X@X@X@X@X@X@X@X@X@X@X@X@X@X@X@X@X@X@X@X@X@X@X@X@X@X",
"@X@X@X@X@X@X@X@X@X@X@X@X@X@X@X@X@X@X@X@X@X@X@X@X@X@X@X@X@X@X@X@X@X@X@X@X@X@X@X@X@X@X@X@X@X@X@X@X@X@X@X@X@X@X@X@X@X@X@X@X",
"@X@X@X@X@X@X@X@X@X@X@X@X@X@X@X@X@X@X@X@X@X@X@XO + @ @X@X@X@X@X@X@X@X@X@X@X@X@X@X@X@X@X@X@X@X@X@X@X@X@X@X@X@X@X@X@X@X@X@X",
"@X@X@X@X@X@X@X@X@X@X@X@X@X@X@X@X@X@X@X@X@X@X; ; * * @X@X@X@X@X@X@X@X@X@X@X@X@X@X@X@X@X@X@X@X@X@X@X@X@X@X@X@X@X@X@X@X@X@X",
"@X@X@X@X@X@X@X@X@X@X@X@X@X@X@X@X@X@X@X@X@X@X4 p q 0 4 @X@X@X@X@X@X@X@X@X@X@X@X@X@X@X@X@X@X@X@X@X@X@X@X@X@X@X@X@X@X@X@X@X",
"@X@X@X@X@X@X@X@X@X@X@X@X@X@X@X@X@X@X@X@X& 4 d j K h p ; + . o O @X@X@X@X@X@X@X@X@X@X@X@X@X@X@X@X@X@X@X@X@X@X@X@X@X@X@X@X",
"@X@X@X@X@X@X@X@X@X@X@X@X@X@X@X@X@X@X@X+ ; 4 j %.-.' g , # + + @ # @X@X@X@X@X@X@X@X@X@X@X@X@X@X@X@X@X@X@X@X@X@X@X@X@X@X@X",
"@X@X@X@X@X@X@X@X@X@X@X@X@X@X@X@X@X@X@X+ $ 9 K <.u.<.K q : - - - : - @X@X@X@X@X@X@X@X@X@X@X@X@X@X@X@X@X@X@X@X@X@X@X@X@X@X",
"@X@X@X@X@X@X@X@X@X@X@X@X@X@X@X@X@X@X@X+ $ 9 L y.v.u.| A d p p d p q , @X@X@X@X@X@X@X@X@X@X@X@X@X@X@X@X@X@X@X@X@X@X@X@X@X",
"@X@X@X@X@X@X@X@X@X@X@X@X@X@X@X@X@X@X@X+ $ a P y.E.C.r.%./ / / / K g 7 $ O   O + @X@X@X@X@X@X@X@X@X@X@X@X@X@X@X@X@X@X@X@X",
"@X@X@X@X@X@X@X@X@X@X@X@X@X@X@X@X@X@X@X+ & k U K.^.!.C.k.7.7.d.6.:.K p ; @ @ @ # # @X@X@X@X@X@X@X@X@X@X@X@X@X@X@X@X@X@X@X",
"@X@X@X@X@X@X@X@X@X@X@X@X@X@X@X@X@X@X@XX $ y U J./.].`.V.m.m.n.c.6.' g 4 > > , , , > @X@X@X@X@X@X@X@X@X@X@X@X@X@X@X@X@X@X",
"@X@X@X@X@X@X@X@X@X@X@X@X@X@X@X@X@X@X@X  $ y U J./. X{.!._.D.B.n.d.:.E h g d g g p p > @X@X@X@X@X@X@X@X@X@X@X@X@X@X@X@X@X",
"@X@X@X@X@X@X@X@X@X@X@X@X@ @ @X@X@X@X@X  $ y U J.(..XoX{.!._.B.b.f.7.,.-.%.-.-./ K d , $ @X@X@X@X@X@X@X@X@X@X@X@X@X@X@X@X",
"@X@X@X@X@X@X@X@X@X@X@X- % % % @X@X@X@X@ - k X.K.(..X.X|.{.!.V.m.c.g.f.d.d.g.d.6.] g , # + @X@X@X@X@X@X@X@X@X@X@X@X@X@X@X",
"@X@X@X@X@X@X@X@X@X@X@X, 4 4 4 , @X@X; > q B =.J.}.XX+X.X|.^.!.V.B.n.n.n.n.Z.n.g.-.g > # O @X@X@X@X@X@X@X@X@X@X@X@X@X@X@X",
"@X@X@X@X@X@X@X@X@X; 7 d h h d 4 & ; 7 f K ..i.W..X+X+X+X.X X[.`._.F.B.A.A.A.A.g.-.g : @   @X@X@X@X@X@X@X@X@X@X@X@X@X@X@X",
"@X@X@X@X@X@X@X@X+ & p K / -.K p - : p E -.e.I.^..X.XXX.X X X|.{.`.F.B.n.n.Z.n.f.-.d > # O @X@X@X@X@X@X@X@X@X@X@X@X@X@X@X",
"@X@X@X@X@X@X@X@X+ * a E 4.6.%.g 4 7 g -.p.v.V.W.~.~.).~.~.~.~.~.!.C.j.u.d.f.d.7.] h 4 - $ @X@X@X@X@X@X@X@X@X@X@X@X@X@X@X",
"@X@X@X@X@X@X@XX @ * a Y u.j.0.K f g E ,.x.v.z.i.q.q.q.q.G.G.H.G.q.*.%.%.] -.-.] E A d a 0 4 @X@X@X@X@X@X@X@X@X@X@X@X@X@X",
"@X@X@X@X@X@X@X  + - a Y i.E.l.1./ / :.d.b.k.9.) J J J J J J J J J N B m f g g g A K E E j p : @X@X@X@X@X@X@X@X@X@X@X@X@X",
"@X@X@X@X@X@X@X  @ - z &.K.'.!.u.6.7.d.x.h.5./ b 9 1 1 1 5 5 5 5 5 1 , , > ; > 4 f E -.:.E d - # @X@X@X@X@X@X@X@X@X@X@X@X",
"@X@X@X@X@X@X@X  @ - z &.K.].[._.M.c.h.f.6.%.j q : - - : : : : < : : : : - - - < s K -.:.E p - # + @X@X@X@X@X@X@X@X@X@X@X",
"@X@X@X@X@X@X@X  + - z &.~. XoX[._.N.u.1./ K g p 7 7 q p p p p p p p s p p 0 7 q d K W W g 0 - # + @X@X@X@X@X@X@X@X@X@X@X",
"@X@X@X@X@X@X@X  @ - z &.Y. XOXoX^.C.9.L b s d f h A K E / / / / / / / / E K A M m f f p 0 : % @ + @X@X@X@X@X@X@X@X@X@X@X",
"@X@X@X@X@X@X@X@X@ : z &.K.(.XXXX}.U.&.N 7 7 s A ' %.2.4.6.7.7.7.7.7.7.6.4.,...Q L d 4 : & % # # # @X@X@X@X@X@X@X@X@X@X@X",
"@X@X@X@X@X@X@X@X+ - v Y H.Y.).|.}.T.=.Z 6 7 f Q >.p.s.x.b.b.g.c.b.b.b.g.x.a.5.$.Q f 7 : & % # # # @X@X@X@X@X@X@X@X@X@X@X",
"@X@X@X@X@X@X@X@X@X- y V X.=.J.Q.}.Q.q.I c f T $.6.p.c.b.n.Z.A.A.Z.n.n.n.c.x.s.5.#.R b t 2 * % # @ @X@X@X@X@X@X@X@X@X@X@X",
"@X@X@X@X@X@X@X@X@X@X1 9 v V +.J.).~.P.*.R W | 5.p.c.b.b.b.n.n.n.Z.b.b.b.c.c.x.p.3.#.Q M t , & # + @X@X@X@X@X@X@X@X@X@X@X",
"@X@X@X@X@X@X@X@X@X@X@X$ = 9 J =.Y.W.P.8.$.#.2.6.h.x.x.x.x.x.g.g.g.g.b.g.c.c.x.h.p.<.} R f 6 * # + @X@X@X@X@X@X@X@X@X@X@X",
"@X@X@X@X@X@X@X@X@X@X@X  + - v U q.K.y.9.>.>.3.p.p.a.s.a.a.5.3.,.2.6.f.g.g.x.s.w.3.$.' D s 6 * @ + @X@X@X@X@X@X@X@X@X@X@X",
"@X@X@X@X@X@X@X@X@X@X@X  O $ 1 z I X.@. .$.$.>.>.$.9.$.$.$._ R R W | 6.f.h.s.w.>.} ! M s 0 : * @ + @X@X@X@X@X@X@X@X@X@X@X",
"@X@X@X@X@X@X@X@X@X@X@X@ @ # = 1 y z S ~ } $.} _ _ _ _ _ ^ H s q f T :.p.h.w.$.~ S b e , ; * # # # @X@X@X@X@X@X@X@X@X@X@X",
"@X@X@X@X@X@X@X@X@X@X@X# # # # # & 2 s L { } ` ^ G G ^ G n i 6 ; 7 h -.p.a.>._ H i 6 - $ # @ # # # @X@X@X@X@X@X@X@X@X@X@X",
"@X@X@X@X@X@X@X@X@X@X@X@X# # + X @ * r D ] } ^ n b i i i u 3 & # : g | p.w.#.S i 6 = % + + + # # # @X@X@X@X@X@X@X@X@X@X@X",
"@X@X@X@X@X@X@X@X@X@X@X@X@X@X+ O + - s D } ` F i y 3 3 3 3 = @ @ : g [ 7.6.` b 2 = % @ + + @ @ # # @X@X@X@X@X@X@X@X@X@X@X",
"@X@X@X@X@X@X@X@X@X@X@X@X@X@X@X+ # : a L ' Q M 7 = $ & * & $ @ # , j -.7.2.W a - $ # # # @ @ # # # @X@X@X@X@X@X@X@X@X@X@X",
"@X@X@X@X@X@X@X@X@X@X@X@X@X@X@X+ # : t F R R b 6 3 * - : = * ; : q K :.p.2.Q p , * * * * * % # # # @X@X@X@X@X@X@X@X@X@X@X",
"@X@X@X@X@X@X@X@X@X@X@X@X@X@X@X@X# : 0 s M M f t e q t s p s p f A ] 5.f.p.[ K d p r t 0 3 * & # @ @X@X@X@X@X@X@X@X@X@X@X",
"@X@X@X@X@X@X@X@X@X@X@X@X@X@X@X@X@X@X2 7 7 t s M F T E Q ' / ' ' -.2.f.g.f.6.-.' Q R D M t 2 & # + @X@X@X@X@X@X@X@X@X@X@X",
"@X@X@X@X@X@X@X@X@X@X@X@X@X@X@X@X@X@X@X& - 6 s D ` #.,.5.7.p.7.p.p.d.g.g.f.f.p.6.2.-.{ R b 7 * @ + @X@X@X@X@X@X@X@X@X@X@X",
"@X@X@X@X@X@X@X@X@X@X@X@X@X@X@X@X@X@X@X+ % > r F Q #.5.p.h.c.c.b.g.d.7.5.7.p.p.h.6.<.{ R b 7 * # @X@X@X@X@X@X@X@X@X@X@X@X",
"@X@X@X@X@X@X@X@X@X@X@X@X@X@X@X@X@X@X@X@X# - 7 s M Q | 6.h.c.n.n.x.5.-.E / -.6.7.3.{ L b t 2 - @X@X@X@X@X@X@X@X@X@X@X@X@X",
"@X@X@X@X@X@X@X@X@X@X@X@X@X@X@X@X@X@X@X@X@X@X: 2 e b R $.6.h.b.b.7.-.A d g K %.<.} A a 7 2 : @X@X@X@X@X@X@X@X@X@X@X@X@X@X",
"@X@X@X@X@X@X@X@X@X@X@X@X@X@X@X@X@X@X@X@X@X@X$ % : 0 m Q $.6.p.p.2.W s , 7 b W { R d 2 & # @X@X@X@X@X@X@X@X@X@X@X@X@X@X@X",
"@X@X@X@X@X@X@X@X@X@X@X@X@X@X@X@X@X@X@X@X@X@X@X+ % 2 a F R { #.-.' j q ; : t M A m q - # @X@X@X@X@X@X@X@X@X@X@X@X@X@X@X@X",
"@X@X@X@X@X@X@X@X@X@X@X@X@X@X@X@X@X@X@X@X@X@X@X@X# : 7 t d g M A h s 2 % & 4 t a w 4 * @X@X@X@X@X@X@X@X@X@X@X@X@X@X@X@X@X",
"@X@X@X@X@X@X@X@X@X@X@X@X@X@X@X@X@X@X@X@X@X@X@X@X@X@X: < 2 2 4 7 7 4 @X@X@X: : < < - @X@X@X@X@X@X@X@X@X@X@X@X@X@X@X@X@X@X",
"@X@X@X@X@X@X@X@X@X@X@X@X@X@X@X@X@X@X@X@X@X@X@X@X@X@X$ % % % % % % % @X@X@X@X% % % @X@X@X@X@X@X@X@X@X@X@X@X@X@X@X@X@X@X@X",
"@X@X@X@X@X@X@X@X@X@X@X@X@X@X@X@X@X@X@X@X@X@X@X@X@X@X@X+ + + + + + @X@X@X@X@X+ + + @X@X@X@X@X@X@X@X@X@X@X@X@X@X@X@X@X@X@X",
"@X@X@X@X@X@X@X@X@X@X@X@X@X@X@X@X@X@X@X@X@X@X@X@X@X@X@X@X@X@X@X@X@X@X@X@X@X@X@X@X@X@X@X@X@X@X@X@X@X@X@X@X@X@X@X@X@X@X@X@X",
"@X@X@X@X@X@X@X@X@X@X@X@X@X@X@X@X@X@X@X@X@X@X@X@X@X@X@X@X@X@X@X@X@X@X@X@X@X@X@X@X@X@X@X@X@X@X@X@X@X@X@X@X@X@X@X@X@X@X@X@X",
"@X@X@X@X@X@X@X@X@X@X@X@X@X@X@X@X@X@X@X@X@X@X@X@X@X@X@X@X@X@X@X@X@X@X@X@X@X@X@X@X@X@X@X@X@X@X@X@X@X@X@X@X@X@X@X@X@X@X@X@X",
"@X@X@X@X@X@X@X@X@X@X@X@X@X@X@X@X@X@X@X@X@X@X@X@X@X@X@X@X@X@X@X@X@X@X@X@X@X@X@X@X@X@X@X@X@X@X@X@X@X@X@X@X@X@X@X@X@X@X@X@X"
};
